<?xml version="1.0" encoding="utf-8" standalone="no"?>
<!DOCTYPE svg PUBLIC "-//W3C//DTD SVG 1.1//EN"
  "http://www.w3.org/Graphics/SVG/1.1/DTD/svg11.dtd">
<svg xmlns:xlink="http://www.w3.org/1999/xlink" width="460.8pt" height="345.6pt" viewBox="0 0 460.8 345.6" xmlns="http://www.w3.org/2000/svg" version="1.1">
 <metadata>
  <rdf:RDF xmlns:dc="http://purl.org/dc/elements/1.1/" xmlns:cc="http://creativecommons.org/ns#" xmlns:rdf="http://www.w3.org/1999/02/22-rdf-syntax-ns#">
   <cc:Work>
    <dc:type rdf:resource="http://purl.org/dc/dcmitype/StillImage"/>
    <dc:date>2026-04-17T20:02:37.257030</dc:date>
    <dc:format>image/svg+xml</dc:format>
    <dc:creator>
     <cc:Agent>
      <dc:title>Matplotlib v3.10.8, https://matplotlib.org/</dc:title>
     </cc:Agent>
    </dc:creator>
   </cc:Work>
  </rdf:RDF>
 </metadata>
 <defs>
  <style type="text/css">*{stroke-linejoin: round; stroke-linecap: butt}</style>
 </defs>
 <g id="figure_1">
  <g id="patch_1">
   <path d="M 0 345.6 
L 460.8 345.6 
L 460.8 0 
L 0 0 
z
" style="fill: #ffffff"/>
  </g>
  <g id="axes_1">
   <g id="patch_2">
    <path d="M 57.6 307.584 
L 414.72 307.584 
L 414.72 41.472 
L 57.6 41.472 
z
" style="fill: #ffffff"/>
   </g>
   <g id="matplotlib.axis_1">
    <g id="xtick_1">
     <g id="line2d_1">
      <defs>
       <path id="m98257b2f9a" d="M 0 0 
L 0 3.5 
" style="stroke: #000000; stroke-width: 0.8"/>
      </defs>
      <g>
       <use xlink:href="#m98257b2f9a" x="73.507748" y="307.584" style="stroke: #000000; stroke-width: 0.8"/>
      </g>
     </g>
     <g id="text_1">
      <!-- 0 -->
      <g transform="translate(70.326498 322.182437) scale(0.1 -0.1)">
       <defs>
        <path id="DejaVuSans-30" d="M 2034 4250 
Q 1547 4250 1301 3770 
Q 1056 3291 1056 2328 
Q 1056 1369 1301 889 
Q 1547 409 2034 409 
Q 2525 409 2770 889 
Q 3016 1369 3016 2328 
Q 3016 3291 2770 3770 
Q 2525 4250 2034 4250 
z
M 2034 4750 
Q 2819 4750 3233 4129 
Q 3647 3509 3647 2328 
Q 3647 1150 3233 529 
Q 2819 -91 2034 -91 
Q 1250 -91 836 529 
Q 422 1150 422 2328 
Q 422 3509 836 4129 
Q 1250 4750 2034 4750 
z
" transform="scale(0.015625)"/>
       </defs>
       <use xlink:href="#DejaVuSans-30"/>
      </g>
     </g>
    </g>
    <g id="xtick_2">
     <g id="line2d_2">
      <g>
       <use xlink:href="#m98257b2f9a" x="138.503653" y="307.584" style="stroke: #000000; stroke-width: 0.8"/>
      </g>
     </g>
     <g id="text_2">
      <!-- 200 -->
      <g transform="translate(128.959903 322.182437) scale(0.1 -0.1)">
       <defs>
        <path id="DejaVuSans-32" d="M 1228 531 
L 3431 531 
L 3431 0 
L 469 0 
L 469 531 
Q 828 903 1448 1529 
Q 2069 2156 2228 2338 
Q 2531 2678 2651 2914 
Q 2772 3150 2772 3378 
Q 2772 3750 2511 3984 
Q 2250 4219 1831 4219 
Q 1534 4219 1204 4116 
Q 875 4013 500 3803 
L 500 4441 
Q 881 4594 1212 4672 
Q 1544 4750 1819 4750 
Q 2544 4750 2975 4387 
Q 3406 4025 3406 3419 
Q 3406 3131 3298 2873 
Q 3191 2616 2906 2266 
Q 2828 2175 2409 1742 
Q 1991 1309 1228 531 
z
" transform="scale(0.015625)"/>
       </defs>
       <use xlink:href="#DejaVuSans-32"/>
       <use xlink:href="#DejaVuSans-30" transform="translate(63.623047 0)"/>
       <use xlink:href="#DejaVuSans-30" transform="translate(127.246094 0)"/>
      </g>
     </g>
    </g>
    <g id="xtick_3">
     <g id="line2d_3">
      <g>
       <use xlink:href="#m98257b2f9a" x="203.499558" y="307.584" style="stroke: #000000; stroke-width: 0.8"/>
      </g>
     </g>
     <g id="text_3">
      <!-- 400 -->
      <g transform="translate(193.955808 322.182437) scale(0.1 -0.1)">
       <defs>
        <path id="DejaVuSans-34" d="M 2419 4116 
L 825 1625 
L 2419 1625 
L 2419 4116 
z
M 2253 4666 
L 3047 4666 
L 3047 1625 
L 3713 1625 
L 3713 1100 
L 3047 1100 
L 3047 0 
L 2419 0 
L 2419 1100 
L 313 1100 
L 313 1709 
L 2253 4666 
z
" transform="scale(0.015625)"/>
       </defs>
       <use xlink:href="#DejaVuSans-34"/>
       <use xlink:href="#DejaVuSans-30" transform="translate(63.623047 0)"/>
       <use xlink:href="#DejaVuSans-30" transform="translate(127.246094 0)"/>
      </g>
     </g>
    </g>
    <g id="xtick_4">
     <g id="line2d_4">
      <g>
       <use xlink:href="#m98257b2f9a" x="268.495463" y="307.584" style="stroke: #000000; stroke-width: 0.8"/>
      </g>
     </g>
     <g id="text_4">
      <!-- 600 -->
      <g transform="translate(258.951713 322.182437) scale(0.1 -0.1)">
       <defs>
        <path id="DejaVuSans-36" d="M 2113 2584 
Q 1688 2584 1439 2293 
Q 1191 2003 1191 1497 
Q 1191 994 1439 701 
Q 1688 409 2113 409 
Q 2538 409 2786 701 
Q 3034 994 3034 1497 
Q 3034 2003 2786 2293 
Q 2538 2584 2113 2584 
z
M 3366 4563 
L 3366 3988 
Q 3128 4100 2886 4159 
Q 2644 4219 2406 4219 
Q 1781 4219 1451 3797 
Q 1122 3375 1075 2522 
Q 1259 2794 1537 2939 
Q 1816 3084 2150 3084 
Q 2853 3084 3261 2657 
Q 3669 2231 3669 1497 
Q 3669 778 3244 343 
Q 2819 -91 2113 -91 
Q 1303 -91 875 529 
Q 447 1150 447 2328 
Q 447 3434 972 4092 
Q 1497 4750 2381 4750 
Q 2619 4750 2861 4703 
Q 3103 4656 3366 4563 
z
" transform="scale(0.015625)"/>
       </defs>
       <use xlink:href="#DejaVuSans-36"/>
       <use xlink:href="#DejaVuSans-30" transform="translate(63.623047 0)"/>
       <use xlink:href="#DejaVuSans-30" transform="translate(127.246094 0)"/>
      </g>
     </g>
    </g>
    <g id="xtick_5">
     <g id="line2d_5">
      <g>
       <use xlink:href="#m98257b2f9a" x="333.491368" y="307.584" style="stroke: #000000; stroke-width: 0.8"/>
      </g>
     </g>
     <g id="text_5">
      <!-- 800 -->
      <g transform="translate(323.947618 322.182437) scale(0.1 -0.1)">
       <defs>
        <path id="DejaVuSans-38" d="M 2034 2216 
Q 1584 2216 1326 1975 
Q 1069 1734 1069 1313 
Q 1069 891 1326 650 
Q 1584 409 2034 409 
Q 2484 409 2743 651 
Q 3003 894 3003 1313 
Q 3003 1734 2745 1975 
Q 2488 2216 2034 2216 
z
M 1403 2484 
Q 997 2584 770 2862 
Q 544 3141 544 3541 
Q 544 4100 942 4425 
Q 1341 4750 2034 4750 
Q 2731 4750 3128 4425 
Q 3525 4100 3525 3541 
Q 3525 3141 3298 2862 
Q 3072 2584 2669 2484 
Q 3125 2378 3379 2068 
Q 3634 1759 3634 1313 
Q 3634 634 3220 271 
Q 2806 -91 2034 -91 
Q 1263 -91 848 271 
Q 434 634 434 1313 
Q 434 1759 690 2068 
Q 947 2378 1403 2484 
z
M 1172 3481 
Q 1172 3119 1398 2916 
Q 1625 2713 2034 2713 
Q 2441 2713 2670 2916 
Q 2900 3119 2900 3481 
Q 2900 3844 2670 4047 
Q 2441 4250 2034 4250 
Q 1625 4250 1398 4047 
Q 1172 3844 1172 3481 
z
" transform="scale(0.015625)"/>
       </defs>
       <use xlink:href="#DejaVuSans-38"/>
       <use xlink:href="#DejaVuSans-30" transform="translate(63.623047 0)"/>
       <use xlink:href="#DejaVuSans-30" transform="translate(127.246094 0)"/>
      </g>
     </g>
    </g>
    <g id="xtick_6">
     <g id="line2d_6">
      <g>
       <use xlink:href="#m98257b2f9a" x="398.487273" y="307.584" style="stroke: #000000; stroke-width: 0.8"/>
      </g>
     </g>
     <g id="text_6">
      <!-- 1000 -->
      <g transform="translate(385.762273 322.182437) scale(0.1 -0.1)">
       <defs>
        <path id="DejaVuSans-31" d="M 794 531 
L 1825 531 
L 1825 4091 
L 703 3866 
L 703 4441 
L 1819 4666 
L 2450 4666 
L 2450 531 
L 3481 531 
L 3481 0 
L 794 0 
L 794 531 
z
" transform="scale(0.015625)"/>
       </defs>
       <use xlink:href="#DejaVuSans-31"/>
       <use xlink:href="#DejaVuSans-30" transform="translate(63.623047 0)"/>
       <use xlink:href="#DejaVuSans-30" transform="translate(127.246094 0)"/>
       <use xlink:href="#DejaVuSans-30" transform="translate(190.869141 0)"/>
      </g>
     </g>
    </g>
    <g id="text_7">
     <!-- x -->
     <g transform="translate(233.200625 335.860562) scale(0.1 -0.1)">
      <defs>
       <path id="DejaVuSans-78" d="M 3513 3500 
L 2247 1797 
L 3578 0 
L 2900 0 
L 1881 1375 
L 863 0 
L 184 0 
L 1544 1831 
L 300 3500 
L 978 3500 
L 1906 2253 
L 2834 3500 
L 3513 3500 
z
" transform="scale(0.015625)"/>
      </defs>
      <use xlink:href="#DejaVuSans-78"/>
     </g>
    </g>
   </g>
   <g id="matplotlib.axis_2">
    <g id="ytick_1">
     <g id="line2d_7">
      <defs>
       <path id="mce46b7b13d" d="M 0 0 
L -3.5 0 
" style="stroke: #000000; stroke-width: 0.8"/>
      </defs>
      <g>
       <use xlink:href="#mce46b7b13d" x="57.6" y="295.823069" style="stroke: #000000; stroke-width: 0.8"/>
      </g>
     </g>
     <g id="text_8">
      <!-- 0 -->
      <g transform="translate(44.2375 299.622288) scale(0.1 -0.1)">
       <use xlink:href="#DejaVuSans-30"/>
      </g>
     </g>
    </g>
    <g id="ytick_2">
     <g id="line2d_8">
      <g>
       <use xlink:href="#mce46b7b13d" x="57.6" y="262.316144" style="stroke: #000000; stroke-width: 0.8"/>
      </g>
     </g>
     <g id="text_9">
      <!-- 10000 -->
      <g transform="translate(18.7875 266.115363) scale(0.1 -0.1)">
       <use xlink:href="#DejaVuSans-31"/>
       <use xlink:href="#DejaVuSans-30" transform="translate(63.623047 0)"/>
       <use xlink:href="#DejaVuSans-30" transform="translate(127.246094 0)"/>
       <use xlink:href="#DejaVuSans-30" transform="translate(190.869141 0)"/>
       <use xlink:href="#DejaVuSans-30" transform="translate(254.492188 0)"/>
      </g>
     </g>
    </g>
    <g id="ytick_3">
     <g id="line2d_9">
      <g>
       <use xlink:href="#mce46b7b13d" x="57.6" y="228.809219" style="stroke: #000000; stroke-width: 0.8"/>
      </g>
     </g>
     <g id="text_10">
      <!-- 20000 -->
      <g transform="translate(18.7875 232.608438) scale(0.1 -0.1)">
       <use xlink:href="#DejaVuSans-32"/>
       <use xlink:href="#DejaVuSans-30" transform="translate(63.623047 0)"/>
       <use xlink:href="#DejaVuSans-30" transform="translate(127.246094 0)"/>
       <use xlink:href="#DejaVuSans-30" transform="translate(190.869141 0)"/>
       <use xlink:href="#DejaVuSans-30" transform="translate(254.492188 0)"/>
      </g>
     </g>
    </g>
    <g id="ytick_4">
     <g id="line2d_10">
      <g>
       <use xlink:href="#mce46b7b13d" x="57.6" y="195.302294" style="stroke: #000000; stroke-width: 0.8"/>
      </g>
     </g>
     <g id="text_11">
      <!-- 30000 -->
      <g transform="translate(18.7875 199.101512) scale(0.1 -0.1)">
       <defs>
        <path id="DejaVuSans-33" d="M 2597 2516 
Q 3050 2419 3304 2112 
Q 3559 1806 3559 1356 
Q 3559 666 3084 287 
Q 2609 -91 1734 -91 
Q 1441 -91 1130 -33 
Q 819 25 488 141 
L 488 750 
Q 750 597 1062 519 
Q 1375 441 1716 441 
Q 2309 441 2620 675 
Q 2931 909 2931 1356 
Q 2931 1769 2642 2001 
Q 2353 2234 1838 2234 
L 1294 2234 
L 1294 2753 
L 1863 2753 
Q 2328 2753 2575 2939 
Q 2822 3125 2822 3475 
Q 2822 3834 2567 4026 
Q 2313 4219 1838 4219 
Q 1578 4219 1281 4162 
Q 984 4106 628 3988 
L 628 4550 
Q 988 4650 1302 4700 
Q 1616 4750 1894 4750 
Q 2613 4750 3031 4423 
Q 3450 4097 3450 3541 
Q 3450 3153 3228 2886 
Q 3006 2619 2597 2516 
z
" transform="scale(0.015625)"/>
       </defs>
       <use xlink:href="#DejaVuSans-33"/>
       <use xlink:href="#DejaVuSans-30" transform="translate(63.623047 0)"/>
       <use xlink:href="#DejaVuSans-30" transform="translate(127.246094 0)"/>
       <use xlink:href="#DejaVuSans-30" transform="translate(190.869141 0)"/>
       <use xlink:href="#DejaVuSans-30" transform="translate(254.492188 0)"/>
      </g>
     </g>
    </g>
    <g id="ytick_5">
     <g id="line2d_11">
      <g>
       <use xlink:href="#mce46b7b13d" x="57.6" y="161.795368" style="stroke: #000000; stroke-width: 0.8"/>
      </g>
     </g>
     <g id="text_12">
      <!-- 40000 -->
      <g transform="translate(18.7875 165.594587) scale(0.1 -0.1)">
       <use xlink:href="#DejaVuSans-34"/>
       <use xlink:href="#DejaVuSans-30" transform="translate(63.623047 0)"/>
       <use xlink:href="#DejaVuSans-30" transform="translate(127.246094 0)"/>
       <use xlink:href="#DejaVuSans-30" transform="translate(190.869141 0)"/>
       <use xlink:href="#DejaVuSans-30" transform="translate(254.492188 0)"/>
      </g>
     </g>
    </g>
    <g id="ytick_6">
     <g id="line2d_12">
      <g>
       <use xlink:href="#mce46b7b13d" x="57.6" y="128.288443" style="stroke: #000000; stroke-width: 0.8"/>
      </g>
     </g>
     <g id="text_13">
      <!-- 50000 -->
      <g transform="translate(18.7875 132.087662) scale(0.1 -0.1)">
       <defs>
        <path id="DejaVuSans-35" d="M 691 4666 
L 3169 4666 
L 3169 4134 
L 1269 4134 
L 1269 2991 
Q 1406 3038 1543 3061 
Q 1681 3084 1819 3084 
Q 2600 3084 3056 2656 
Q 3513 2228 3513 1497 
Q 3513 744 3044 326 
Q 2575 -91 1722 -91 
Q 1428 -91 1123 -41 
Q 819 9 494 109 
L 494 744 
Q 775 591 1075 516 
Q 1375 441 1709 441 
Q 2250 441 2565 725 
Q 2881 1009 2881 1497 
Q 2881 1984 2565 2268 
Q 2250 2553 1709 2553 
Q 1456 2553 1204 2497 
Q 953 2441 691 2322 
L 691 4666 
z
" transform="scale(0.015625)"/>
       </defs>
       <use xlink:href="#DejaVuSans-35"/>
       <use xlink:href="#DejaVuSans-30" transform="translate(63.623047 0)"/>
       <use xlink:href="#DejaVuSans-30" transform="translate(127.246094 0)"/>
       <use xlink:href="#DejaVuSans-30" transform="translate(190.869141 0)"/>
       <use xlink:href="#DejaVuSans-30" transform="translate(254.492188 0)"/>
      </g>
     </g>
    </g>
    <g id="ytick_7">
     <g id="line2d_13">
      <g>
       <use xlink:href="#mce46b7b13d" x="57.6" y="94.781518" style="stroke: #000000; stroke-width: 0.8"/>
      </g>
     </g>
     <g id="text_14">
      <!-- 60000 -->
      <g transform="translate(18.7875 98.580737) scale(0.1 -0.1)">
       <use xlink:href="#DejaVuSans-36"/>
       <use xlink:href="#DejaVuSans-30" transform="translate(63.623047 0)"/>
       <use xlink:href="#DejaVuSans-30" transform="translate(127.246094 0)"/>
       <use xlink:href="#DejaVuSans-30" transform="translate(190.869141 0)"/>
       <use xlink:href="#DejaVuSans-30" transform="translate(254.492188 0)"/>
      </g>
     </g>
    </g>
    <g id="ytick_8">
     <g id="line2d_14">
      <g>
       <use xlink:href="#mce46b7b13d" x="57.6" y="61.274593" style="stroke: #000000; stroke-width: 0.8"/>
      </g>
     </g>
     <g id="text_15">
      <!-- 70000 -->
      <g transform="translate(18.7875 65.073812) scale(0.1 -0.1)">
       <defs>
        <path id="DejaVuSans-37" d="M 525 4666 
L 3525 4666 
L 3525 4397 
L 1831 0 
L 1172 0 
L 2766 4134 
L 525 4134 
L 525 4666 
z
" transform="scale(0.015625)"/>
       </defs>
       <use xlink:href="#DejaVuSans-37"/>
       <use xlink:href="#DejaVuSans-30" transform="translate(63.623047 0)"/>
       <use xlink:href="#DejaVuSans-30" transform="translate(127.246094 0)"/>
       <use xlink:href="#DejaVuSans-30" transform="translate(190.869141 0)"/>
       <use xlink:href="#DejaVuSans-30" transform="translate(254.492188 0)"/>
      </g>
     </g>
    </g>
    <g id="text_16">
     <!-- apprFarey -->
     <g transform="translate(12.707812 199.458469) rotate(-90) scale(0.1 -0.1)">
      <defs>
       <path id="DejaVuSans-61" d="M 2194 1759 
Q 1497 1759 1228 1600 
Q 959 1441 959 1056 
Q 959 750 1161 570 
Q 1363 391 1709 391 
Q 2188 391 2477 730 
Q 2766 1069 2766 1631 
L 2766 1759 
L 2194 1759 
z
M 3341 1997 
L 3341 0 
L 2766 0 
L 2766 531 
Q 2569 213 2275 61 
Q 1981 -91 1556 -91 
Q 1019 -91 701 211 
Q 384 513 384 1019 
Q 384 1609 779 1909 
Q 1175 2209 1959 2209 
L 2766 2209 
L 2766 2266 
Q 2766 2663 2505 2880 
Q 2244 3097 1772 3097 
Q 1472 3097 1187 3025 
Q 903 2953 641 2809 
L 641 3341 
Q 956 3463 1253 3523 
Q 1550 3584 1831 3584 
Q 2591 3584 2966 3190 
Q 3341 2797 3341 1997 
z
" transform="scale(0.015625)"/>
       <path id="DejaVuSans-70" d="M 1159 525 
L 1159 -1331 
L 581 -1331 
L 581 3500 
L 1159 3500 
L 1159 2969 
Q 1341 3281 1617 3432 
Q 1894 3584 2278 3584 
Q 2916 3584 3314 3078 
Q 3713 2572 3713 1747 
Q 3713 922 3314 415 
Q 2916 -91 2278 -91 
Q 1894 -91 1617 61 
Q 1341 213 1159 525 
z
M 3116 1747 
Q 3116 2381 2855 2742 
Q 2594 3103 2138 3103 
Q 1681 3103 1420 2742 
Q 1159 2381 1159 1747 
Q 1159 1113 1420 752 
Q 1681 391 2138 391 
Q 2594 391 2855 752 
Q 3116 1113 3116 1747 
z
" transform="scale(0.015625)"/>
       <path id="DejaVuSans-72" d="M 2631 2963 
Q 2534 3019 2420 3045 
Q 2306 3072 2169 3072 
Q 1681 3072 1420 2755 
Q 1159 2438 1159 1844 
L 1159 0 
L 581 0 
L 581 3500 
L 1159 3500 
L 1159 2956 
Q 1341 3275 1631 3429 
Q 1922 3584 2338 3584 
Q 2397 3584 2469 3576 
Q 2541 3569 2628 3553 
L 2631 2963 
z
" transform="scale(0.015625)"/>
       <path id="DejaVuSans-46" d="M 628 4666 
L 3309 4666 
L 3309 4134 
L 1259 4134 
L 1259 2759 
L 3109 2759 
L 3109 2228 
L 1259 2228 
L 1259 0 
L 628 0 
L 628 4666 
z
" transform="scale(0.015625)"/>
       <path id="DejaVuSans-65" d="M 3597 1894 
L 3597 1613 
L 953 1613 
Q 991 1019 1311 708 
Q 1631 397 2203 397 
Q 2534 397 2845 478 
Q 3156 559 3463 722 
L 3463 178 
Q 3153 47 2828 -22 
Q 2503 -91 2169 -91 
Q 1331 -91 842 396 
Q 353 884 353 1716 
Q 353 2575 817 3079 
Q 1281 3584 2069 3584 
Q 2775 3584 3186 3129 
Q 3597 2675 3597 1894 
z
M 3022 2063 
Q 3016 2534 2758 2815 
Q 2500 3097 2075 3097 
Q 1594 3097 1305 2825 
Q 1016 2553 972 2059 
L 3022 2063 
z
" transform="scale(0.015625)"/>
       <path id="DejaVuSans-79" d="M 2059 -325 
Q 1816 -950 1584 -1140 
Q 1353 -1331 966 -1331 
L 506 -1331 
L 506 -850 
L 844 -850 
Q 1081 -850 1212 -737 
Q 1344 -625 1503 -206 
L 1606 56 
L 191 3500 
L 800 3500 
L 1894 763 
L 2988 3500 
L 3597 3500 
L 2059 -325 
z
" transform="scale(0.015625)"/>
      </defs>
      <use xlink:href="#DejaVuSans-61"/>
      <use xlink:href="#DejaVuSans-70" transform="translate(61.279297 0)"/>
      <use xlink:href="#DejaVuSans-70" transform="translate(124.755859 0)"/>
      <use xlink:href="#DejaVuSans-72" transform="translate(188.232422 0)"/>
      <use xlink:href="#DejaVuSans-46" transform="translate(229.345703 0)"/>
      <use xlink:href="#DejaVuSans-61" transform="translate(277.740234 0)"/>
      <use xlink:href="#DejaVuSans-72" transform="translate(339.019531 0)"/>
      <use xlink:href="#DejaVuSans-65" transform="translate(377.882812 0)"/>
      <use xlink:href="#DejaVuSans-79" transform="translate(439.40625 0)"/>
     </g>
    </g>
   </g>
   <g id="line2d_15">
    <path d="M 73.832727 295.488 
L 74.157707 293.142515 
L 74.482686 295.152931 
L 74.807666 294.817861 
L 75.132645 295.152931 
L 75.457625 295.152931 
L 75.782604 294.817861 
L 76.107584 294.817861 
L 76.432563 294.482792 
L 76.757543 294.482792 
L 77.082523 294.147723 
L 77.732482 294.147723 
L 78.382441 293.477584 
L 79.0324 293.477584 
L 79.357379 293.142515 
L 79.682359 293.142515 
L 80.007338 292.807446 
L 80.657297 292.807446 
L 81.307256 292.137307 
L 81.957215 292.137307 
L 82.607174 291.467169 
L 83.582113 291.467169 
L 84.232072 290.79703 
L 84.882031 290.79703 
L 85.207011 290.461961 
L 85.53199 290.461961 
L 85.85697 290.126892 
L 86.506929 290.126892 
L 87.156888 289.456753 
L 88.131826 289.456753 
L 88.456806 289.121684 
L 88.781785 289.121684 
L 89.431744 288.451546 
L 89.756724 288.451546 
L 90.081704 288.116476 
L 90.731663 288.116476 
L 91.056642 287.781407 
L 91.381622 287.781407 
L 91.706601 287.446338 
L 92.35656 287.446338 
L 93.006519 286.776199 
L 93.331499 286.776199 
L 93.656478 286.44113 
L 94.306437 286.44113 
L 94.631417 286.106061 
L 94.956396 286.106061 
L 95.281376 285.770992 
L 95.606355 285.770992 
L 95.931335 285.435922 
L 96.906274 285.435922 
L 97.556233 284.765784 
L 97.881212 284.765784 
L 98.206192 284.430715 
L 98.856151 284.430715 
L 99.18113 284.095645 
L 99.50611 284.095645 
L 100.156069 283.425507 
L 100.481048 283.425507 
L 100.806028 283.090438 
L 101.131007 283.090438 
L 101.455987 282.755368 
L 102.105946 282.755368 
L 102.430925 282.420299 
L 102.755905 282.420299 
L 103.080885 282.08523 
L 103.730844 282.08523 
L 104.055823 281.750161 
L 104.380803 281.750161 
L 104.705782 281.415091 
L 105.355741 281.415091 
L 106.0057 280.744953 
L 106.33068 280.744953 
L 106.655659 280.409884 
L 107.630598 280.409884 
L 108.280557 279.739745 
L 108.930516 279.739745 
L 109.255495 279.404676 
L 109.580475 279.404676 
L 109.905455 279.069607 
L 110.230434 279.069607 
L 110.555414 278.734537 
L 111.205373 278.734537 
L 111.530352 278.064399 
L 111.855332 278.399468 
L 112.180311 278.064399 
L 112.83027 278.064399 
L 113.805209 277.059191 
L 114.455168 277.059191 
L 114.780147 276.724122 
L 115.105127 276.724122 
L 115.430106 276.389053 
L 115.755086 276.389053 
L 116.080066 276.053983 
L 116.730025 276.053983 
L 117.055004 275.718914 
L 117.704963 275.718914 
L 118.029943 275.383845 
L 118.679902 275.383845 
L 119.004881 275.048776 
L 119.329861 275.048776 
L 119.65484 274.713706 
L 119.97982 274.713706 
L 120.304799 274.378637 
L 120.629779 274.378637 
L 120.954758 274.043568 
L 121.279738 274.043568 
L 121.604717 273.708499 
L 122.254676 273.708499 
L 122.904636 273.03836 
L 123.229615 273.03836 
L 123.554595 272.703291 
L 124.204554 272.703291 
L 124.529533 272.368222 
L 125.179492 272.368222 
L 125.829451 271.698083 
L 126.154431 271.698083 
L 126.47941 271.363014 
L 127.129369 271.363014 
L 127.454349 271.027945 
L 128.104308 271.027945 
L 128.754267 270.357806 
L 129.079247 270.357806 
L 129.404226 270.022737 
L 130.054185 270.022737 
L 130.379165 269.687668 
L 130.704144 269.687668 
L 131.029124 269.352598 
L 131.354103 269.352598 
L 131.679083 269.017529 
L 132.004062 269.017529 
L 132.329042 268.68246 
L 132.654021 268.68246 
L 132.979001 268.347391 
L 133.953939 268.347391 
L 134.603898 267.677252 
L 134.928878 267.677252 
L 135.253857 267.342183 
L 135.903817 267.342183 
L 136.228796 267.007114 
L 136.553776 267.007114 
L 136.878755 266.672044 
L 137.528714 266.672044 
L 138.178673 266.001906 
L 138.503653 266.001906 
L 138.828632 265.666837 
L 139.478591 265.666837 
L 139.803571 265.331767 
L 140.12855 265.331767 
L 140.45353 264.996698 
L 140.778509 264.996698 
L 141.103489 264.32656 
L 141.428468 264.661629 
L 141.753448 264.661629 
L 142.078428 264.32656 
L 142.403407 207.364787 
L 142.728387 261.646006 
L 143.053366 262.316144 
L 143.378346 262.651213 
L 143.703325 261.981075 
L 144.028305 241.54185 
L 144.353284 259.63559 
L 144.678264 260.640798 
L 145.328223 259.970659 
L 145.653202 259.970659 
L 145.978182 260.305729 
L 146.303161 259.300521 
L 146.628141 259.300521 
L 146.95312 259.63559 
L 147.2781 258.630382 
L 147.603079 258.630382 
L 147.928059 258.965452 
L 148.253038 258.295313 
L 148.578018 258.295313 
L 148.902998 257.960244 
L 149.227977 257.960244 
L 149.552957 258.630382 
L 149.877936 257.625175 
L 150.202916 257.290105 
L 150.527895 257.625175 
L 150.852875 257.290105 
L 151.177854 256.619967 
L 151.502834 256.955036 
L 151.827813 256.284898 
L 152.152793 255.949828 
L 152.477772 256.284898 
L 152.802752 255.949828 
L 153.127731 256.284898 
L 153.452711 255.614759 
L 153.77769 255.614759 
L 154.10267 255.949828 
L 154.427649 255.27969 
L 154.752629 255.27969 
L 155.077609 254.609551 
L 155.402588 254.94462 
L 155.727568 255.614759 
L 156.052547 254.274482 
L 156.702506 253.604343 
L 157.027486 253.604343 
L 157.352465 254.274482 
L 158.002424 253.604343 
L 158.652383 253.604343 
L 158.977363 253.269274 
L 159.302342 252.599136 
L 159.627322 252.934205 
L 159.952301 252.264066 
L 160.277281 252.264066 
L 160.60226 251.928997 
L 160.92724 252.264066 
L 161.252219 252.264066 
L 161.577199 251.593928 
L 161.902179 251.258859 
L 162.227158 251.593928 
L 162.552138 252.264066 
L 162.877117 251.258859 
L 163.202097 251.258859 
L 163.852056 250.58872 
L 164.177035 249.918582 
L 164.502015 250.58872 
L 164.826994 250.58872 
L 165.476953 249.918582 
L 165.801933 249.918582 
L 166.126912 249.583512 
L 166.451892 248.243235 
L 166.776871 248.578305 
L 167.101851 249.248443 
L 167.42683 248.578305 
L 167.75181 248.243235 
L 168.07679 248.578305 
L 168.401769 249.248443 
L 168.726749 249.248443 
L 169.051728 249.583512 
L 169.376708 248.243235 
L 169.701687 249.583512 
L 170.026667 248.578305 
L 170.351646 248.243235 
L 171.001605 248.243235 
L 171.326585 247.238028 
L 171.651564 248.243235 
L 171.976544 247.238028 
L 172.301523 247.238028 
L 172.626503 246.902958 
L 172.951482 246.902958 
L 173.276462 246.567889 
L 173.601441 246.902958 
L 173.926421 245.562681 
L 174.2514 245.562681 
L 174.57638 246.567889 
L 174.90136 246.23282 
L 175.226339 245.227612 
L 175.551319 245.897751 
L 175.876298 245.227612 
L 176.201278 245.562681 
L 176.526257 245.562681 
L 176.851237 245.227612 
L 177.176216 245.227612 
L 177.501196 244.557474 
L 178.151155 245.227612 
L 178.476134 244.892543 
L 178.801114 244.222404 
L 179.126093 244.557474 
L 179.451073 243.552266 
L 179.776052 243.887335 
L 180.101032 243.552266 
L 180.426011 242.882127 
L 180.750991 243.552266 
L 181.075971 243.552266 
L 181.40095 243.217197 
L 181.72593 243.552266 
L 182.050909 241.87692 
L 182.375889 243.552266 
L 183.025848 241.87692 
L 183.350827 242.547058 
L 184.000786 241.87692 
L 184.325766 241.87692 
L 184.650745 242.211989 
L 184.975725 240.871712 
L 185.300704 241.206781 
L 185.625684 221.102626 
L 185.950663 239.531435 
L 186.275643 238.861296 
L 186.600622 239.196366 
L 186.925602 239.866504 
L 187.250581 239.196366 
L 187.575561 239.196366 
L 187.900541 238.861296 
L 188.5505 239.531435 
L 188.875479 238.861296 
L 189.200459 238.861296 
L 189.525438 238.191158 
L 190.175397 238.191158 
L 190.500377 238.526227 
L 190.825356 237.521019 
L 191.150336 237.521019 
L 191.475315 236.515812 
L 191.800295 237.521019 
L 192.125274 236.515812 
L 192.450254 236.850881 
L 192.775233 236.515812 
L 193.100213 234.840465 
L 193.425192 235.845673 
L 193.750172 235.510604 
L 194.075152 236.180742 
L 194.400131 235.845673 
L 194.725111 235.845673 
L 195.05009 234.505396 
L 195.37507 235.175535 
L 195.700049 235.510604 
L 196.350008 235.510604 
L 196.674988 234.840465 
L 196.999967 234.505396 
L 197.324947 234.840465 
L 197.649926 233.500188 
L 198.299885 233.500188 
L 198.624865 233.835258 
L 198.949844 233.835258 
L 199.274824 233.165119 
L 199.599803 233.500188 
L 200.249762 232.83005 
L 200.574742 232.159911 
L 200.899722 232.494981 
L 201.224701 231.489773 
L 201.549681 232.83005 
L 201.87466 232.159911 
L 202.19964 231.824842 
L 202.524619 231.824842 
L 203.499558 230.819634 
L 203.824537 231.489773 
L 204.149517 230.819634 
L 204.474496 231.154704 
L 204.799476 230.484565 
L 205.124455 231.154704 
L 205.449435 230.484565 
L 206.424373 229.479357 
L 206.749353 229.814427 
L 207.074333 228.809219 
L 207.399312 229.814427 
L 207.724292 228.13908 
L 208.049271 228.47415 
L 208.374251 227.133873 
L 208.69923 228.47415 
L 209.02421 227.133873 
L 209.349189 227.133873 
L 209.674169 229.144288 
L 209.999148 228.809219 
L 210.324128 226.463734 
L 210.649107 228.13908 
L 210.974087 228.809219 
L 211.299066 230.149496 
L 211.624046 229.814427 
L 211.949025 229.144288 
L 212.274005 229.814427 
L 212.598984 229.479357 
L 212.923964 229.479357 
L 213.248943 228.47415 
L 213.573923 229.144288 
L 213.898903 228.809219 
L 214.223882 228.13908 
L 214.548862 228.47415 
L 214.873841 228.13908 
L 215.198821 227.468942 
L 215.84878 227.468942 
L 216.173759 227.133873 
L 216.498739 227.133873 
L 216.823718 226.798803 
L 217.148698 226.798803 
L 217.798657 226.128665 
L 218.123636 226.128665 
L 218.448616 227.133873 
L 218.773595 225.458526 
L 219.098575 226.798803 
L 219.423554 226.128665 
L 219.748534 215.406449 
L 220.073514 229.479357 
L 220.723473 229.479357 
L 221.048452 229.144288 
L 221.698411 229.144288 
L 222.023391 228.809219 
L 222.67335 228.809219 
L 223.323309 228.13908 
L 223.973268 228.13908 
L 224.623227 227.468942 
L 224.948206 227.468942 
L 225.273186 227.133873 
L 225.598165 227.468942 
L 225.923145 227.133873 
L 226.248124 227.133873 
L 226.898084 226.463734 
L 227.548043 226.463734 
L 227.873022 226.128665 
L 228.198002 226.128665 
L 228.522981 225.793596 
L 228.847961 225.793596 
L 229.17294 225.458526 
L 229.49792 225.793596 
L 230.147879 225.123457 
L 230.472858 225.458526 
L 231.122817 224.788388 
L 231.772776 224.788388 
L 232.422735 224.118249 
L 232.747715 224.118249 
L 233.072695 223.78318 
L 233.722654 223.78318 
L 234.372613 223.113042 
L 235.022572 223.113042 
L 235.347551 222.442903 
L 235.672531 222.777972 
L 235.99751 222.107834 
L 236.972449 222.107834 
L 237.297428 221.772765 
L 237.622408 222.107834 
L 237.947387 221.772765 
L 238.272367 221.772765 
L 238.922326 221.102626 
L 239.897265 221.102626 
L 240.222244 220.767557 
L 240.547224 220.767557 
L 240.872203 220.097418 
L 241.197183 220.097418 
L 241.522162 220.432488 
L 242.497101 219.42728 
L 242.82208 219.42728 
L 243.14706 219.092211 
L 243.472039 219.092211 
L 243.797019 218.757141 
L 244.121998 219.092211 
L 244.771957 218.422072 
L 245.096937 218.757141 
L 245.421916 218.422072 
L 245.746896 218.422072 
L 246.396855 217.751934 
L 246.721835 217.751934 
L 247.046814 217.416864 
L 247.371794 217.751934 
L 248.021753 217.081795 
L 248.346732 217.081795 
L 248.671712 216.746726 
L 248.996691 216.746726 
L 249.321671 216.411657 
L 249.64665 203.343956 
L 249.97163 215.406449 
L 250.296609 215.07138 
L 250.621589 215.07138 
L 250.946568 214.73631 
L 251.271548 214.73631 
L 251.596527 214.401241 
L 252.246486 214.401241 
L 252.571466 214.066172 
L 253.221425 214.066172 
L 253.871384 213.396033 
L 254.196364 213.396033 
L 254.521343 213.060964 
L 255.171302 213.060964 
L 255.496282 212.725895 
L 256.146241 212.725895 
L 256.47122 211.720687 
L 256.7962 212.390825 
L 257.121179 212.055756 
L 257.446159 212.055756 
L 257.771138 211.385618 
L 258.096118 211.720687 
L 258.421097 211.385618 
L 258.746077 211.385618 
L 259.071057 211.050548 
L 259.396036 211.050548 
L 259.721016 210.715479 
L 260.370975 210.715479 
L 260.695954 210.38041 
L 261.020934 210.38041 
L 261.345913 210.045341 
L 261.670893 210.045341 
L 261.995872 209.710271 
L 262.645831 209.710271 
L 262.970811 209.375202 
L 263.29579 209.375202 
L 263.62077 209.040133 
L 264.270729 209.040133 
L 264.595708 208.705064 
L 264.920688 208.705064 
L 265.570647 208.034925 
L 266.220606 208.034925 
L 266.870565 207.364787 
L 267.845504 207.364787 
L 268.495463 206.694648 
L 268.820442 206.694648 
L 269.145422 206.359579 
L 269.795381 206.359579 
L 270.12036 206.02451 
L 270.44534 206.359579 
L 270.770319 205.354371 
L 271.095299 205.68944 
L 271.420278 205.68944 
L 272.070238 205.019302 
L 272.720197 205.019302 
L 273.370156 204.349163 
L 274.020115 204.349163 
L 274.345094 204.014094 
L 274.670074 128.288443 
L 274.995053 195.972432 
L 275.320033 194.632155 
L 275.645012 195.637363 
L 275.969992 194.967224 
L 276.294971 195.302294 
L 276.619951 195.302294 
L 276.94493 194.967224 
L 277.26991 193.626947 
L 277.594889 194.297086 
L 277.919869 192.62174 
L 278.244848 193.291878 
L 278.569828 194.297086 
L 278.894808 193.962017 
L 279.219787 194.297086 
L 279.544767 193.962017 
L 279.869746 192.956809 
L 280.194726 192.956809 
L 280.519705 192.62174 
L 280.844685 191.951601 
L 281.169664 191.951601 
L 281.494644 192.62174 
L 281.819623 191.951601 
L 282.144603 192.28667 
L 282.469582 191.616532 
L 282.794562 191.951601 
L 283.119541 191.951601 
L 283.7695 189.606116 
L 284.09448 191.616532 
L 284.419459 191.281463 
L 284.744439 191.616532 
L 285.394398 191.616532 
L 285.719378 190.611324 
L 286.044357 190.276255 
L 286.369337 190.611324 
L 286.694316 189.606116 
L 287.019296 189.606116 
L 287.344275 188.935978 
L 287.669255 189.606116 
L 287.994234 188.935978 
L 288.319214 189.606116 
L 288.644193 188.935978 
L 288.969173 188.600909 
L 289.294152 189.606116 
L 289.619132 188.265839 
L 289.944111 187.595701 
L 290.269091 188.935978 
L 290.91905 187.260632 
L 291.244029 188.600909 
L 291.569009 186.590493 
L 291.893989 187.595701 
L 292.218968 186.590493 
L 292.543948 186.255424 
L 292.868927 186.590493 
L 293.518886 187.93077 
L 293.843866 187.260632 
L 294.168845 187.260632 
L 294.493825 185.585285 
L 294.818804 185.920355 
L 295.143784 173.187723 
L 295.468763 194.297086 
L 296.118722 194.297086 
L 296.443702 193.962017 
L 296.768681 193.962017 
L 297.093661 192.956809 
L 297.41864 193.626947 
L 297.74362 193.291878 
L 298.0686 193.626947 
L 298.393579 192.956809 
L 298.718559 193.291878 
L 299.368518 192.62174 
L 300.018477 192.62174 
L 300.668436 191.951601 
L 301.643374 191.951601 
L 302.293333 191.281463 
L 303.268272 191.281463 
L 303.593251 190.946393 
L 303.918231 190.276255 
L 304.24321 190.611324 
L 304.56819 189.941186 
L 304.89317 190.276255 
L 305.218149 189.941186 
L 305.543129 189.941186 
L 305.868108 188.600909 
L 306.193088 189.271047 
L 306.518067 189.606116 
L 306.843047 189.606116 
L 307.168026 188.935978 
L 307.817985 188.935978 
L 308.142965 188.600909 
L 308.467944 188.600909 
L 308.792924 188.935978 
L 309.117903 188.265839 
L 309.767862 187.595701 
L 310.092842 187.93077 
L 310.417821 187.595701 
L 310.742801 187.595701 
L 311.067781 187.260632 
L 311.39276 187.260632 
L 311.71774 186.925562 
L 312.692678 186.925562 
L 313.667617 185.920355 
L 313.992596 186.255424 
L 314.317576 185.920355 
L 314.642555 185.920355 
L 314.967535 185.585285 
L 315.292514 185.585285 
L 315.617494 185.250216 
L 315.942473 171.177307 
L 316.267453 184.915147 
L 316.592432 184.915147 
L 316.917412 184.580078 
L 317.242391 184.580078 
L 317.567371 184.245008 
L 317.892351 184.245008 
L 318.21733 183.909939 
L 318.54231 183.909939 
L 319.192269 183.239801 
L 319.842228 183.239801 
L 320.167207 182.904731 
L 320.817166 182.904731 
L 321.467125 182.234593 
L 322.442064 182.234593 
L 323.092023 181.564454 
L 323.417002 181.564454 
L 323.741982 181.229385 
L 324.066962 181.229385 
L 324.391941 180.894316 
L 325.36688 180.894316 
L 326.016839 180.224177 
L 326.341818 180.224177 
L 326.991777 179.554039 
L 327.316757 179.889108 
L 327.641736 179.889108 
L 327.966716 179.554039 
L 328.291695 178.8839 
L 328.616675 179.21897 
L 328.941654 179.21897 
L 329.266634 178.8839 
L 329.591613 178.8839 
L 330.241572 178.213762 
L 331.216511 178.213762 
L 331.86647 177.543623 
L 332.19145 176.873485 
L 332.516429 177.208554 
L 333.491368 177.208554 
L 333.816347 176.873485 
L 334.466306 176.873485 
L 334.791286 161.460299 
L 335.116265 171.512377 
L 335.441245 171.177307 
L 335.766224 171.177307 
L 336.091204 170.842238 
L 336.416183 171.512377 
L 336.741163 171.847446 
L 337.066143 170.842238 
L 337.391122 169.166892 
L 337.716102 170.842238 
L 338.041081 170.507169 
L 338.366061 170.507169 
L 338.69104 170.1721 
L 339.01602 169.501961 
L 339.340999 169.83703 
L 339.665979 169.501961 
L 339.990958 169.501961 
L 340.640917 168.831823 
L 340.965897 169.166892 
L 341.290876 168.161684 
L 341.615856 168.831823 
L 341.940835 169.83703 
L 342.265815 167.491546 
L 342.915774 168.161684 
L 343.240753 167.491546 
L 343.565733 167.826615 
L 343.890713 167.491546 
L 344.215692 167.826615 
L 344.540672 166.486338 
L 344.865651 167.156476 
L 345.190631 165.816199 
L 345.51561 167.491546 
L 345.84059 167.156476 
L 346.490549 165.48113 
L 346.815528 165.48113 
L 347.140508 165.816199 
L 347.465487 53.568 
L 347.790467 170.1721 
L 348.115446 170.1721 
L 348.440426 169.83703 
L 348.765405 169.83703 
L 349.415364 169.166892 
L 350.390303 169.166892 
L 350.715283 168.831823 
L 351.040262 168.831823 
L 351.365242 168.496753 
L 351.690221 124.937751 
L 352.015201 168.496753 
L 352.990139 168.496753 
L 353.640098 167.826615 
L 354.290057 167.826615 
L 354.940016 167.156476 
L 355.589975 167.156476 
L 356.239934 166.486338 
L 356.889894 166.486338 
L 357.214873 166.151269 
L 358.189812 166.151269 
L 358.839771 165.48113 
L 359.48973 165.48113 
L 360.139689 164.810992 
L 360.464668 164.810992 
L 360.789648 165.146061 
L 361.764586 164.140853 
L 362.414545 164.140853 
L 362.739525 163.805784 
L 363.389484 163.805784 
L 364.039443 163.135645 
L 364.364423 163.135645 
L 364.689402 162.800576 
L 365.664341 162.800576 
L 366.639279 161.795368 
L 366.964259 161.795368 
L 367.289238 161.460299 
L 367.939197 161.460299 
L 368.264177 148.057529 
L 368.589156 161.795368 
L 368.914136 161.795368 
L 369.239115 161.460299 
L 369.889075 161.460299 
L 370.214054 161.12523 
L 370.539034 161.12523 
L 370.864013 160.790161 
L 371.513972 160.790161 
L 371.838952 160.455091 
L 372.163931 160.455091 
L 373.13887 159.449884 
L 373.463849 159.784953 
L 373.788829 159.784953 
L 374.113808 159.449884 
L 374.438788 159.449884 
L 375.088747 158.779745 
L 375.738706 158.779745 
L 376.063686 158.444676 
L 376.713645 158.444676 
L 377.038624 158.109607 
L 377.363604 158.109607 
L 377.688583 157.774537 
L 378.013563 157.774537 
L 378.338542 157.104399 
L 378.663522 157.439468 
L 378.988501 157.439468 
L 379.313481 157.104399 
L 379.63846 157.104399 
L 379.96344 156.76933 
L 380.288419 156.76933 
L 380.613399 156.43426 
L 380.938378 156.43426 
L 381.263358 155.764122 
L 381.588337 156.099191 
L 381.913317 148.057529 
L 382.238296 156.76933 
L 382.563276 156.76933 
L 383.213235 156.099191 
L 383.538215 156.099191 
L 383.863194 155.429053 
L 384.188174 155.764122 
L 384.513153 155.764122 
L 385.163112 155.093983 
L 385.488092 155.093983 
L 385.813071 154.758914 
L 386.138051 155.093983 
L 386.46303 154.758914 
L 386.78801 154.758914 
L 387.112989 154.088776 
L 387.437969 154.423845 
L 387.762948 154.088776 
L 388.087928 154.088776 
L 388.412907 153.753706 
L 388.737887 153.753706 
L 389.062867 153.418637 
L 389.387846 153.418637 
L 389.712826 153.083568 
L 390.362785 153.083568 
L 390.687764 152.748499 
L 391.012744 152.07836 
L 391.337723 152.413429 
L 391.662703 152.07836 
L 392.312662 152.07836 
L 392.637641 151.743291 
L 393.61258 151.743291 
L 393.937559 151.408222 
L 394.262539 151.408222 
L 394.912498 150.738083 
L 395.237477 137.335313 
L 395.562457 149.062737 
L 395.887437 149.062737 
L 396.212416 148.727668 
L 396.537396 148.727668 
L 397.187355 148.057529 
L 397.512334 148.392598 
L 397.837314 148.392598 
L 398.487273 147.72246 
L 398.487273 147.72246 
" clip-path="url(#pd84bca3f77)" style="fill: none; stroke: #1f77b4; stroke-width: 1.5; stroke-linecap: square"/>
   </g>
   <g id="patch_3">
    <path d="M 57.6 307.584 
L 57.6 41.472 
" style="fill: none; stroke: #000000; stroke-width: 0.8; stroke-linejoin: miter; stroke-linecap: square"/>
   </g>
   <g id="patch_4">
    <path d="M 414.72 307.584 
L 414.72 41.472 
" style="fill: none; stroke: #000000; stroke-width: 0.8; stroke-linejoin: miter; stroke-linecap: square"/>
   </g>
   <g id="patch_5">
    <path d="M 57.6 307.584 
L 414.72 307.584 
" style="fill: none; stroke: #000000; stroke-width: 0.8; stroke-linejoin: miter; stroke-linecap: square"/>
   </g>
   <g id="patch_6">
    <path d="M 57.6 41.472 
L 414.72 41.472 
" style="fill: none; stroke: #000000; stroke-width: 0.8; stroke-linejoin: miter; stroke-linecap: square"/>
   </g>
   <g id="text_17">
    <!-- График -->
    <g transform="translate(212.361562 35.472) scale(0.12 -0.12)">
     <defs>
      <path id="DejaVuSans-413" d="M 628 0 
L 628 4666 
L 3531 4666 
L 3531 4134 
L 1259 4134 
L 1259 0 
L 628 0 
z
" transform="scale(0.015625)"/>
      <path id="DejaVuSans-440" d="M 1159 525 
L 1159 -1331 
L 581 -1331 
L 581 3500 
L 1159 3500 
L 1159 2969 
Q 1341 3281 1617 3432 
Q 1894 3584 2278 3584 
Q 2916 3584 3314 3078 
Q 3713 2572 3713 1747 
Q 3713 922 3314 415 
Q 2916 -91 2278 -91 
Q 1894 -91 1617 61 
Q 1341 213 1159 525 
z
M 3116 1747 
Q 3116 2381 2855 2742 
Q 2594 3103 2138 3103 
Q 1681 3103 1420 2742 
Q 1159 2381 1159 1747 
Q 1159 1113 1420 752 
Q 1681 391 2138 391 
Q 2594 391 2855 752 
Q 3116 1113 3116 1747 
z
" transform="scale(0.015625)"/>
      <path id="DejaVuSans-430" d="M 2194 1759 
Q 1497 1759 1228 1600 
Q 959 1441 959 1056 
Q 959 750 1161 570 
Q 1363 391 1709 391 
Q 2188 391 2477 730 
Q 2766 1069 2766 1631 
L 2766 1759 
L 2194 1759 
z
M 3341 1997 
L 3341 0 
L 2766 0 
L 2766 531 
Q 2569 213 2275 61 
Q 1981 -91 1556 -91 
Q 1019 -91 701 211 
Q 384 513 384 1019 
Q 384 1609 779 1909 
Q 1175 2209 1959 2209 
L 2766 2209 
L 2766 2266 
Q 2766 2663 2505 2880 
Q 2244 3097 1772 3097 
Q 1472 3097 1187 3025 
Q 903 2953 641 2809 
L 641 3341 
Q 956 3463 1253 3523 
Q 1550 3584 1831 3584 
Q 2591 3584 2966 3190 
Q 3341 2797 3341 1997 
z
" transform="scale(0.015625)"/>
      <path id="DejaVuSans-444" d="M 947 1747 
Q 947 1013 1173 702 
Q 1400 391 1784 391 
Q 2091 391 2447 916 
L 2447 2578 
Q 2091 3103 1784 3103 
Q 1400 3103 1173 2792 
Q 947 2481 947 1747 
z
M 2447 -1331 
L 2447 447 
Q 2269 153 2064 31 
Q 1859 -91 1600 -91 
Q 1078 -91 714 392 
Q 350 875 350 1734 
Q 350 2594 714 3089 
Q 1078 3584 1600 3584 
Q 1859 3584 2064 3465 
Q 2269 3347 2447 3053 
L 2447 4666 
L 3025 4666 
L 3025 3053 
Q 3203 3347 3408 3465 
Q 3613 3584 3872 3584 
Q 4394 3584 4758 3089 
Q 5122 2594 5122 1734 
Q 5122 875 4758 392 
Q 4394 -91 3872 -91 
Q 3613 -91 3408 31 
Q 3203 153 3025 447 
L 3025 -1331 
L 2447 -1331 
z
M 4525 1747 
Q 4525 2481 4298 2792 
Q 4072 3103 3688 3103 
Q 3381 3103 3025 2578 
L 3025 916 
Q 3381 391 3688 391 
Q 4072 391 4298 702 
Q 4525 1013 4525 1747 
z
" transform="scale(0.015625)"/>
      <path id="DejaVuSans-438" d="M 3578 3500 
L 3578 0 
L 3006 0 
L 3006 2809 
L 1319 0 
L 581 0 
L 581 3500 
L 1153 3500 
L 1153 697 
L 2838 3500 
L 3578 3500 
z
" transform="scale(0.015625)"/>
      <path id="DejaVuSans-43a" d="M 581 3500 
L 1153 3500 
L 1153 1856 
L 2775 3500 
L 3481 3500 
L 2144 2147 
L 3653 0 
L 3009 0 
L 1769 1766 
L 1153 1141 
L 1153 0 
L 581 0 
L 581 3500 
z
" transform="scale(0.015625)"/>
     </defs>
     <use xlink:href="#DejaVuSans-413"/>
     <use xlink:href="#DejaVuSans-440" transform="translate(60.986328 0)"/>
     <use xlink:href="#DejaVuSans-430" transform="translate(124.462891 0)"/>
     <use xlink:href="#DejaVuSans-444" transform="translate(185.742188 0)"/>
     <use xlink:href="#DejaVuSans-438" transform="translate(271.240234 0)"/>
     <use xlink:href="#DejaVuSans-43a" transform="translate(336.230469 0)"/>
    </g>
   </g>
  </g>
 </g>
 <defs>
  <clipPath id="pd84bca3f77">
   <rect x="57.6" y="41.472" width="357.12" height="266.112"/>
  </clipPath>
 </defs>
</svg>
