<?xml version="1.0" encoding="utf-8" standalone="no"?>
<!DOCTYPE svg PUBLIC "-//W3C//DTD SVG 1.1//EN"
  "http://www.w3.org/Graphics/SVG/1.1/DTD/svg11.dtd">
<svg xmlns:xlink="http://www.w3.org/1999/xlink" width="460.8pt" height="345.6pt" viewBox="0 0 460.8 345.6" xmlns="http://www.w3.org/2000/svg" version="1.1">
 <metadata>
  <rdf:RDF xmlns:dc="http://purl.org/dc/elements/1.1/" xmlns:cc="http://creativecommons.org/ns#" xmlns:rdf="http://www.w3.org/1999/02/22-rdf-syntax-ns#">
   <cc:Work>
    <dc:type rdf:resource="http://purl.org/dc/dcmitype/StillImage"/>
    <dc:date>2026-04-13T19:11:01.969814</dc:date>
    <dc:format>image/svg+xml</dc:format>
    <dc:creator>
     <cc:Agent>
      <dc:title>Matplotlib v3.10.8, https://matplotlib.org/</dc:title>
     </cc:Agent>
    </dc:creator>
   </cc:Work>
  </rdf:RDF>
 </metadata>
 <defs>
  <style type="text/css">*{stroke-linejoin: round; stroke-linecap: butt}</style>
 </defs>
 <g id="figure_1">
  <g id="patch_1">
   <path d="M 0 345.6 
L 460.8 345.6 
L 460.8 0 
L 0 0 
z
" style="fill: #ffffff"/>
  </g>
  <g id="axes_1">
   <g id="patch_2">
    <path d="M 57.6 307.584 
L 414.72 307.584 
L 414.72 41.472 
L 57.6 41.472 
z
" style="fill: #ffffff"/>
   </g>
   <g id="matplotlib.axis_1">
    <g id="xtick_1">
     <g id="line2d_1">
      <defs>
       <path id="m7cc493b117" d="M 0 0 
L 0 3.5 
" style="stroke: #000000; stroke-width: 0.8"/>
      </defs>
      <g>
       <use xlink:href="#m7cc493b117" x="73.507748" y="307.584" style="stroke: #000000; stroke-width: 0.8"/>
      </g>
     </g>
     <g id="text_1">
      <!-- 0 -->
      <g transform="translate(70.326498 322.182437) scale(0.1 -0.1)">
       <defs>
        <path id="DejaVuSans-30" d="M 2034 4250 
Q 1547 4250 1301 3770 
Q 1056 3291 1056 2328 
Q 1056 1369 1301 889 
Q 1547 409 2034 409 
Q 2525 409 2770 889 
Q 3016 1369 3016 2328 
Q 3016 3291 2770 3770 
Q 2525 4250 2034 4250 
z
M 2034 4750 
Q 2819 4750 3233 4129 
Q 3647 3509 3647 2328 
Q 3647 1150 3233 529 
Q 2819 -91 2034 -91 
Q 1250 -91 836 529 
Q 422 1150 422 2328 
Q 422 3509 836 4129 
Q 1250 4750 2034 4750 
z
" transform="scale(0.015625)"/>
       </defs>
       <use xlink:href="#DejaVuSans-30"/>
      </g>
     </g>
    </g>
    <g id="xtick_2">
     <g id="line2d_2">
      <g>
       <use xlink:href="#m7cc493b117" x="138.503653" y="307.584" style="stroke: #000000; stroke-width: 0.8"/>
      </g>
     </g>
     <g id="text_2">
      <!-- 200 -->
      <g transform="translate(128.959903 322.182437) scale(0.1 -0.1)">
       <defs>
        <path id="DejaVuSans-32" d="M 1228 531 
L 3431 531 
L 3431 0 
L 469 0 
L 469 531 
Q 828 903 1448 1529 
Q 2069 2156 2228 2338 
Q 2531 2678 2651 2914 
Q 2772 3150 2772 3378 
Q 2772 3750 2511 3984 
Q 2250 4219 1831 4219 
Q 1534 4219 1204 4116 
Q 875 4013 500 3803 
L 500 4441 
Q 881 4594 1212 4672 
Q 1544 4750 1819 4750 
Q 2544 4750 2975 4387 
Q 3406 4025 3406 3419 
Q 3406 3131 3298 2873 
Q 3191 2616 2906 2266 
Q 2828 2175 2409 1742 
Q 1991 1309 1228 531 
z
" transform="scale(0.015625)"/>
       </defs>
       <use xlink:href="#DejaVuSans-32"/>
       <use xlink:href="#DejaVuSans-30" transform="translate(63.623047 0)"/>
       <use xlink:href="#DejaVuSans-30" transform="translate(127.246094 0)"/>
      </g>
     </g>
    </g>
    <g id="xtick_3">
     <g id="line2d_3">
      <g>
       <use xlink:href="#m7cc493b117" x="203.499558" y="307.584" style="stroke: #000000; stroke-width: 0.8"/>
      </g>
     </g>
     <g id="text_3">
      <!-- 400 -->
      <g transform="translate(193.955808 322.182437) scale(0.1 -0.1)">
       <defs>
        <path id="DejaVuSans-34" d="M 2419 4116 
L 825 1625 
L 2419 1625 
L 2419 4116 
z
M 2253 4666 
L 3047 4666 
L 3047 1625 
L 3713 1625 
L 3713 1100 
L 3047 1100 
L 3047 0 
L 2419 0 
L 2419 1100 
L 313 1100 
L 313 1709 
L 2253 4666 
z
" transform="scale(0.015625)"/>
       </defs>
       <use xlink:href="#DejaVuSans-34"/>
       <use xlink:href="#DejaVuSans-30" transform="translate(63.623047 0)"/>
       <use xlink:href="#DejaVuSans-30" transform="translate(127.246094 0)"/>
      </g>
     </g>
    </g>
    <g id="xtick_4">
     <g id="line2d_4">
      <g>
       <use xlink:href="#m7cc493b117" x="268.495463" y="307.584" style="stroke: #000000; stroke-width: 0.8"/>
      </g>
     </g>
     <g id="text_4">
      <!-- 600 -->
      <g transform="translate(258.951713 322.182437) scale(0.1 -0.1)">
       <defs>
        <path id="DejaVuSans-36" d="M 2113 2584 
Q 1688 2584 1439 2293 
Q 1191 2003 1191 1497 
Q 1191 994 1439 701 
Q 1688 409 2113 409 
Q 2538 409 2786 701 
Q 3034 994 3034 1497 
Q 3034 2003 2786 2293 
Q 2538 2584 2113 2584 
z
M 3366 4563 
L 3366 3988 
Q 3128 4100 2886 4159 
Q 2644 4219 2406 4219 
Q 1781 4219 1451 3797 
Q 1122 3375 1075 2522 
Q 1259 2794 1537 2939 
Q 1816 3084 2150 3084 
Q 2853 3084 3261 2657 
Q 3669 2231 3669 1497 
Q 3669 778 3244 343 
Q 2819 -91 2113 -91 
Q 1303 -91 875 529 
Q 447 1150 447 2328 
Q 447 3434 972 4092 
Q 1497 4750 2381 4750 
Q 2619 4750 2861 4703 
Q 3103 4656 3366 4563 
z
" transform="scale(0.015625)"/>
       </defs>
       <use xlink:href="#DejaVuSans-36"/>
       <use xlink:href="#DejaVuSans-30" transform="translate(63.623047 0)"/>
       <use xlink:href="#DejaVuSans-30" transform="translate(127.246094 0)"/>
      </g>
     </g>
    </g>
    <g id="xtick_5">
     <g id="line2d_5">
      <g>
       <use xlink:href="#m7cc493b117" x="333.491368" y="307.584" style="stroke: #000000; stroke-width: 0.8"/>
      </g>
     </g>
     <g id="text_5">
      <!-- 800 -->
      <g transform="translate(323.947618 322.182437) scale(0.1 -0.1)">
       <defs>
        <path id="DejaVuSans-38" d="M 2034 2216 
Q 1584 2216 1326 1975 
Q 1069 1734 1069 1313 
Q 1069 891 1326 650 
Q 1584 409 2034 409 
Q 2484 409 2743 651 
Q 3003 894 3003 1313 
Q 3003 1734 2745 1975 
Q 2488 2216 2034 2216 
z
M 1403 2484 
Q 997 2584 770 2862 
Q 544 3141 544 3541 
Q 544 4100 942 4425 
Q 1341 4750 2034 4750 
Q 2731 4750 3128 4425 
Q 3525 4100 3525 3541 
Q 3525 3141 3298 2862 
Q 3072 2584 2669 2484 
Q 3125 2378 3379 2068 
Q 3634 1759 3634 1313 
Q 3634 634 3220 271 
Q 2806 -91 2034 -91 
Q 1263 -91 848 271 
Q 434 634 434 1313 
Q 434 1759 690 2068 
Q 947 2378 1403 2484 
z
M 1172 3481 
Q 1172 3119 1398 2916 
Q 1625 2713 2034 2713 
Q 2441 2713 2670 2916 
Q 2900 3119 2900 3481 
Q 2900 3844 2670 4047 
Q 2441 4250 2034 4250 
Q 1625 4250 1398 4047 
Q 1172 3844 1172 3481 
z
" transform="scale(0.015625)"/>
       </defs>
       <use xlink:href="#DejaVuSans-38"/>
       <use xlink:href="#DejaVuSans-30" transform="translate(63.623047 0)"/>
       <use xlink:href="#DejaVuSans-30" transform="translate(127.246094 0)"/>
      </g>
     </g>
    </g>
    <g id="xtick_6">
     <g id="line2d_6">
      <g>
       <use xlink:href="#m7cc493b117" x="398.487273" y="307.584" style="stroke: #000000; stroke-width: 0.8"/>
      </g>
     </g>
     <g id="text_6">
      <!-- 1000 -->
      <g transform="translate(385.762273 322.182437) scale(0.1 -0.1)">
       <defs>
        <path id="DejaVuSans-31" d="M 794 531 
L 1825 531 
L 1825 4091 
L 703 3866 
L 703 4441 
L 1819 4666 
L 2450 4666 
L 2450 531 
L 3481 531 
L 3481 0 
L 794 0 
L 794 531 
z
" transform="scale(0.015625)"/>
       </defs>
       <use xlink:href="#DejaVuSans-31"/>
       <use xlink:href="#DejaVuSans-30" transform="translate(63.623047 0)"/>
       <use xlink:href="#DejaVuSans-30" transform="translate(127.246094 0)"/>
       <use xlink:href="#DejaVuSans-30" transform="translate(190.869141 0)"/>
      </g>
     </g>
    </g>
    <g id="text_7">
     <!-- x -->
     <g transform="translate(233.200625 335.860562) scale(0.1 -0.1)">
      <defs>
       <path id="DejaVuSans-78" d="M 3513 3500 
L 2247 1797 
L 3578 0 
L 2900 0 
L 1881 1375 
L 863 0 
L 184 0 
L 1544 1831 
L 300 3500 
L 978 3500 
L 1906 2253 
L 2834 3500 
L 3513 3500 
z
" transform="scale(0.015625)"/>
      </defs>
      <use xlink:href="#DejaVuSans-78"/>
     </g>
    </g>
   </g>
   <g id="matplotlib.axis_2">
    <g id="ytick_1">
     <g id="line2d_7">
      <defs>
       <path id="mfa6718ee50" d="M 0 0 
L -3.5 0 
" style="stroke: #000000; stroke-width: 0.8"/>
      </defs>
      <g>
       <use xlink:href="#mfa6718ee50" x="57.6" y="295.490646" style="stroke: #000000; stroke-width: 0.8"/>
      </g>
     </g>
     <g id="text_8">
      <!-- 0 -->
      <g transform="translate(44.2375 299.289865) scale(0.1 -0.1)">
       <use xlink:href="#DejaVuSans-30"/>
      </g>
     </g>
    </g>
    <g id="ytick_2">
     <g id="line2d_8">
      <g>
       <use xlink:href="#mfa6718ee50" x="57.6" y="242.57263" style="stroke: #000000; stroke-width: 0.8"/>
      </g>
     </g>
     <g id="text_9">
      <!-- 2 -->
      <g transform="translate(44.2375 246.371849) scale(0.1 -0.1)">
       <use xlink:href="#DejaVuSans-32"/>
      </g>
     </g>
    </g>
    <g id="ytick_3">
     <g id="line2d_9">
      <g>
       <use xlink:href="#mfa6718ee50" x="57.6" y="189.654615" style="stroke: #000000; stroke-width: 0.8"/>
      </g>
     </g>
     <g id="text_10">
      <!-- 4 -->
      <g transform="translate(44.2375 193.453834) scale(0.1 -0.1)">
       <use xlink:href="#DejaVuSans-34"/>
      </g>
     </g>
    </g>
    <g id="ytick_4">
     <g id="line2d_10">
      <g>
       <use xlink:href="#mfa6718ee50" x="57.6" y="136.736599" style="stroke: #000000; stroke-width: 0.8"/>
      </g>
     </g>
     <g id="text_11">
      <!-- 6 -->
      <g transform="translate(44.2375 140.535818) scale(0.1 -0.1)">
       <use xlink:href="#DejaVuSans-36"/>
      </g>
     </g>
    </g>
    <g id="ytick_5">
     <g id="line2d_11">
      <g>
       <use xlink:href="#mfa6718ee50" x="57.6" y="83.818584" style="stroke: #000000; stroke-width: 0.8"/>
      </g>
     </g>
     <g id="text_12">
      <!-- 8 -->
      <g transform="translate(44.2375 87.617802) scale(0.1 -0.1)">
       <use xlink:href="#DejaVuSans-38"/>
      </g>
     </g>
    </g>
    <g id="text_13">
     <!-- apr -->
     <g transform="translate(38.157812 182.82175) rotate(-90) scale(0.1 -0.1)">
      <defs>
       <path id="DejaVuSans-61" d="M 2194 1759 
Q 1497 1759 1228 1600 
Q 959 1441 959 1056 
Q 959 750 1161 570 
Q 1363 391 1709 391 
Q 2188 391 2477 730 
Q 2766 1069 2766 1631 
L 2766 1759 
L 2194 1759 
z
M 3341 1997 
L 3341 0 
L 2766 0 
L 2766 531 
Q 2569 213 2275 61 
Q 1981 -91 1556 -91 
Q 1019 -91 701 211 
Q 384 513 384 1019 
Q 384 1609 779 1909 
Q 1175 2209 1959 2209 
L 2766 2209 
L 2766 2266 
Q 2766 2663 2505 2880 
Q 2244 3097 1772 3097 
Q 1472 3097 1187 3025 
Q 903 2953 641 2809 
L 641 3341 
Q 956 3463 1253 3523 
Q 1550 3584 1831 3584 
Q 2591 3584 2966 3190 
Q 3341 2797 3341 1997 
z
" transform="scale(0.015625)"/>
       <path id="DejaVuSans-70" d="M 1159 525 
L 1159 -1331 
L 581 -1331 
L 581 3500 
L 1159 3500 
L 1159 2969 
Q 1341 3281 1617 3432 
Q 1894 3584 2278 3584 
Q 2916 3584 3314 3078 
Q 3713 2572 3713 1747 
Q 3713 922 3314 415 
Q 2916 -91 2278 -91 
Q 1894 -91 1617 61 
Q 1341 213 1159 525 
z
M 3116 1747 
Q 3116 2381 2855 2742 
Q 2594 3103 2138 3103 
Q 1681 3103 1420 2742 
Q 1159 2381 1159 1747 
Q 1159 1113 1420 752 
Q 1681 391 2138 391 
Q 2594 391 2855 752 
Q 3116 1113 3116 1747 
z
" transform="scale(0.015625)"/>
       <path id="DejaVuSans-72" d="M 2631 2963 
Q 2534 3019 2420 3045 
Q 2306 3072 2169 3072 
Q 1681 3072 1420 2755 
Q 1159 2438 1159 1844 
L 1159 0 
L 581 0 
L 581 3500 
L 1159 3500 
L 1159 2956 
Q 1341 3275 1631 3429 
Q 1922 3584 2338 3584 
Q 2397 3584 2469 3576 
Q 2541 3569 2628 3553 
L 2631 2963 
z
" transform="scale(0.015625)"/>
      </defs>
      <use xlink:href="#DejaVuSans-61"/>
      <use xlink:href="#DejaVuSans-70" transform="translate(61.279297 0)"/>
      <use xlink:href="#DejaVuSans-72" transform="translate(124.755859 0)"/>
     </g>
    </g>
    <g id="text_14">
     <!-- 1e6 -->
     <g transform="translate(57.6 38.472) scale(0.1 -0.1)">
      <defs>
       <path id="DejaVuSans-65" d="M 3597 1894 
L 3597 1613 
L 953 1613 
Q 991 1019 1311 708 
Q 1631 397 2203 397 
Q 2534 397 2845 478 
Q 3156 559 3463 722 
L 3463 178 
Q 3153 47 2828 -22 
Q 2503 -91 2169 -91 
Q 1331 -91 842 396 
Q 353 884 353 1716 
Q 353 2575 817 3079 
Q 1281 3584 2069 3584 
Q 2775 3584 3186 3129 
Q 3597 2675 3597 1894 
z
M 3022 2063 
Q 3016 2534 2758 2815 
Q 2500 3097 2075 3097 
Q 1594 3097 1305 2825 
Q 1016 2553 972 2059 
L 3022 2063 
z
" transform="scale(0.015625)"/>
      </defs>
      <use xlink:href="#DejaVuSans-31"/>
      <use xlink:href="#DejaVuSans-65" transform="translate(63.623047 0)"/>
      <use xlink:href="#DejaVuSans-36" transform="translate(125.146484 0)"/>
     </g>
    </g>
   </g>
   <g id="line2d_12">
    <path d="M 73.832727 295.488 
L 75.132645 293.249568 
L 75.457625 291.81549 
L 76.107584 289.976589 
L 76.432563 290.786234 
L 76.757543 291.122264 
L 77.407502 289.987172 
L 77.732482 288.158855 
L 78.057461 292.111831 
L 78.70742 291.450355 
L 79.0324 291.259851 
L 79.357379 291.241329 
L 80.007338 290.868257 
L 80.657297 290.873549 
L 80.982277 290.820631 
L 81.307256 289.701415 
L 81.632236 290.47931 
L 82.282195 290.439621 
L 84.557052 289.121963 
L 84.882031 288.891769 
L 85.207011 288.264691 
L 85.53199 288.39434 
L 87.156888 287.404773 
L 87.481867 286.428436 
L 87.806847 286.94174 
L 88.131826 286.849134 
L 88.456806 286.621586 
L 88.781785 286.047426 
L 89.106765 277.567314 
L 89.431744 279.826913 
L 89.756724 285.846338 
L 90.081704 285.714043 
L 90.406683 285.322449 
L 90.731663 285.245718 
L 91.056642 283.383004 
L 91.381622 284.785331 
L 92.031581 284.412259 
L 92.35656 284.197941 
L 92.68154 285.063151 
L 93.006519 283.091955 
L 93.331499 282.067991 
L 93.656478 285.158403 
L 93.981458 282.419896 
L 94.306437 284.698017 
L 94.631417 284.846187 
L 94.956396 283.295689 
L 95.281376 283.197791 
L 95.606355 284.010082 
L 95.931335 284.142377 
L 96.581294 283.168686 
L 96.906274 282.724175 
L 97.556233 282.710945 
L 97.881212 282.171181 
L 98.531171 281.951572 
L 99.18113 281.467372 
L 99.50611 279.998897 
L 99.831089 279.080769 
L 100.156069 280.215861 
L 100.481048 276.887318 
L 100.806028 279.051664 
L 101.131007 278.763261 
L 101.455987 280.062398 
L 102.105946 280.271425 
L 102.430925 279.773995 
L 102.755905 279.55174 
L 103.080885 279.475008 
L 103.405864 279.181314 
L 103.730844 279.55174 
L 104.055823 279.652284 
L 104.705782 278.52513 
L 105.030762 278.646842 
L 105.355741 278.384897 
L 105.680721 277.051363 
L 106.0057 278.27377 
L 106.655659 277.326537 
L 106.980639 277.265681 
L 107.305618 277.04078 
L 107.630598 277.151908 
L 107.955577 274.921413 
L 108.280557 273.569358 
L 108.605536 276.08561 
L 108.930516 275.675495 
L 109.255495 275.892459 
L 109.905455 275.442656 
L 110.230434 273.04547 
L 110.555414 275.744288 
L 110.880393 274.767951 
L 111.205373 275.146315 
L 111.530352 274.969039 
L 111.855332 275.916272 
L 112.180311 275.791915 
L 112.505291 274.921413 
L 112.83027 274.722971 
L 113.15525 274.860558 
L 113.480229 274.648885 
L 113.805209 273.423833 
L 114.130188 273.180411 
L 114.455168 272.391932 
L 114.780147 265.93858 
L 115.105127 270.75412 
L 115.430106 269.447045 
L 115.755086 271.442054 
L 116.080066 270.523926 
L 116.405045 271.029293 
L 116.730025 270.767349 
L 117.055004 263.708086 
L 117.379984 260.011762 
L 117.704963 269.658717 
L 118.029943 270.85731 
L 118.354922 271.1219 
L 118.679902 270.878477 
L 119.004881 270.031789 
L 119.329861 271.16688 
L 119.65484 268.137324 
L 119.97982 270.09529 
L 120.304799 258.860796 
L 120.629779 258.032629 
L 120.954758 267.428222 
L 121.279738 261.694555 
L 121.604717 262.186693 
L 121.929697 268.497166 
L 122.579656 267.459973 
L 122.904636 266.097334 
L 123.229615 265.483485 
L 123.554595 262.885211 
L 123.879574 264.083804 
L 124.204554 263.943571 
L 124.529533 262.766145 
L 124.854513 262.247549 
L 125.179492 263.509643 
L 125.504472 263.144509 
L 125.829451 263.303263 
L 126.154431 262.181401 
L 126.47941 263.723961 
L 126.80439 262.938129 
L 127.454349 261.98825 
L 128.104308 261.390277 
L 128.429287 261.578136 
L 128.754267 261.628408 
L 129.079247 260.096431 
L 129.404226 259.667795 
L 129.729206 259.723359 
L 130.054185 260.416585 
L 130.379165 260.673238 
L 130.704144 261.083352 
L 131.029124 259.376746 
L 131.354103 256.130226 
L 131.679083 260.622965 
L 132.004062 258.760251 
L 132.329042 257.857999 
L 132.654021 255.32058 
L 132.979001 254.264866 
L 133.30398 256.789055 
L 133.62896 254.069069 
L 134.603898 259.3741 
L 134.928878 258.397763 
L 135.253857 258.543287 
L 135.578837 258.485078 
L 135.903817 260.72351 
L 136.553776 260.191684 
L 136.878755 254.57179 
L 137.203735 251.788303 
L 137.528714 258.966632 
L 137.853694 260.23931 
L 138.178673 255.315288 
L 138.503653 258.537996 
L 138.828632 257.897688 
L 139.153612 257.667494 
L 139.478591 252.613824 
L 139.803571 255.81801 
L 140.12855 256.000577 
L 140.45353 253.240902 
L 140.778509 253.994984 
L 141.103489 255.968826 
L 141.428468 253.61662 
L 142.078428 252.444486 
L 142.403407 250.838424 
L 142.728387 254.510935 
L 143.053366 255.053344 
L 143.703325 253.095378 
L 144.028305 250.216638 
L 144.353284 253.619266 
L 144.678264 255.357623 
L 145.328223 252.486821 
L 145.653202 252.50005 
L 145.978182 252.214293 
L 146.303161 248.094625 
L 146.628141 250.568542 
L 146.95312 251.312041 
L 147.2781 249.57633 
L 147.603079 251.899431 
L 147.928059 252.38363 
L 148.253038 247.867078 
L 148.578018 252.833434 
L 148.902998 251.521067 
L 149.227977 249.729792 
L 149.552957 251.846513 
L 149.877936 251.166516 
L 150.202916 251.793595 
L 150.852875 249.465202 
L 151.177854 251.153287 
L 151.502834 249.454618 
L 151.827813 251.182391 
L 152.152793 246.409186 
L 152.802752 250.417726 
L 153.127731 249.565746 
L 153.452711 250.028779 
L 153.77769 248.171356 
L 154.10267 248.523261 
L 154.427649 246.599691 
L 154.752629 247.681865 
L 155.077609 248.237504 
L 155.402588 245.99378 
L 155.727568 245.342888 
L 156.052547 245.517518 
L 156.377527 246.393311 
L 156.702506 245.734482 
L 157.027486 245.858839 
L 157.352465 244.898377 
L 157.677445 244.572931 
L 158.002424 244.408885 
L 158.327404 244.414177 
L 158.652383 241.363454 
L 158.977363 245.721252 
L 159.302342 245.901174 
L 159.627322 245.173551 
L 160.277281 246.009655 
L 160.60226 244.840167 
L 160.92724 238.905412 
L 161.577199 243.154728 
L 161.902179 241.487811 
L 162.227158 241.598939 
L 162.552138 242.284227 
L 162.877117 241.77886 
L 163.202097 242.059326 
L 163.527076 242.191621 
L 163.852056 241.773568 
L 164.177035 241.546021 
L 164.502015 240.360657 
L 164.826994 241.323765 
L 165.151974 239.498094 
L 165.476953 239.746808 
L 165.801933 239.781205 
L 166.126912 239.424008 
L 166.451892 229.115579 
L 166.776871 225.972249 
L 167.101851 238.058724 
L 167.42683 240.273343 
L 167.75181 238.691094 
L 168.07679 240.069608 
L 168.401769 238.479422 
L 168.726749 238.632884 
L 169.051728 234.796328 
L 169.376708 235.325508 
L 169.701687 234.338587 
L 170.026667 235.751498 
L 170.351646 240.408283 
L 170.676626 242.474732 
L 171.001605 241.178241 
L 171.326585 240.876608 
L 171.651564 235.092669 
L 171.976544 243.6892 
L 172.301523 235.460449 
L 172.626503 236.465891 
L 173.276462 234.772515 
L 173.601441 236.783399 
L 173.926421 234.767223 
L 174.2514 234.407381 
L 174.57638 236.860131 
L 174.90136 234.333295 
L 175.226339 234.529092 
L 175.551319 236.397098 
L 175.876298 232.544666 
L 176.526257 234.637574 
L 177.501196 232.314473 
L 177.826175 233.539525 
L 178.151155 232.758984 
L 178.476134 231.121172 
L 178.801114 233.880846 
L 179.126093 233.748551 
L 179.776052 231.306385 
L 180.101032 230.973001 
L 180.426011 233.248476 
L 180.750991 231.023273 
L 181.075971 230.626388 
L 181.40095 231.192611 
L 181.72593 236.542622 
L 182.050909 236.323013 
L 182.375889 235.883793 
L 182.700868 233.425751 
L 183.025848 235.677413 
L 183.350827 234.261856 
L 183.675807 234.386213 
L 184.000786 235.050334 
L 184.325766 233.460148 
L 184.650745 235.000062 
L 184.975725 235.328154 
L 185.300704 235.222318 
L 185.625684 233.20085 
L 185.950663 235.367843 
L 186.275643 235.452511 
L 186.600622 235.373134 
L 187.250581 232.065758 
L 187.575561 232.523499 
L 187.900541 231.650352 
L 188.22552 230.033707 
L 188.5505 230.435883 
L 188.875479 229.63153 
L 189.200459 229.464838 
L 189.525438 227.229052 
L 189.850418 232.065758 
L 190.175397 233.126765 
L 190.500377 232.155719 
L 190.825356 229.766471 
L 191.150336 231.21907 
L 191.800295 230.613159 
L 192.125274 230.928021 
L 192.450254 222.654289 
L 192.775233 223.842299 
L 193.100213 221.77585 
L 193.750172 229.060015 
L 194.400131 222.416158 
L 194.725111 224.231246 
L 195.05009 222.082775 
L 195.37507 221.868457 
L 195.700049 221.095854 
L 196.025029 222.413512 
L 196.350008 220.161851 
L 196.674988 221.984876 
L 196.999967 220.714844 
L 197.324947 223.461289 
L 197.974906 226.25536 
L 198.299885 219.376018 
L 198.624865 220.148621 
L 198.949844 220.339126 
L 199.274824 221.659431 
L 199.924783 218.076881 
L 200.249762 219.111428 
L 200.574742 218.098048 
L 200.899722 221.78908 
L 201.224701 218.055714 
L 201.549681 215.904596 
L 201.87466 220.01368 
L 202.19964 215.920472 
L 202.524619 217.947232 
L 202.849599 222.426742 
L 203.174578 213.004689 
L 203.499558 214.057758 
L 203.824537 221.135542 
L 204.149517 224.088367 
L 204.474496 221.072041 
L 204.799476 222.119817 
L 205.124455 220.49788 
L 205.449435 222.593434 
L 205.774414 223.336932 
L 206.099394 223.749692 
L 206.424373 220.108933 
L 206.749353 220.688385 
L 207.074333 224.900659 
L 207.399312 220.651342 
L 207.724292 220.76247 
L 208.049271 221.024414 
L 208.374251 218.666917 
L 208.69923 220.399982 
L 209.02421 221.257254 
L 209.674169 219.653838 
L 209.999148 221.416008 
L 210.324128 217.121711 
L 210.649107 219.066448 
L 210.974087 214.065695 
L 211.299066 213.756125 
L 211.624046 214.068341 
L 211.949025 215.610901 
L 212.274005 218.693376 
L 212.598984 217.666766 
L 212.923964 212.745391 
L 213.248943 213.536515 
L 213.573923 213.168735 
L 213.898903 214.250908 
L 214.223882 212.61045 
L 214.548862 218.145674 
L 214.873841 216.034246 
L 215.198821 202.331125 
L 215.5238 208.93794 
L 215.84878 211.972788 
L 216.173759 206.456085 
L 216.498739 208.76331 
L 216.823718 208.379655 
L 217.148698 206.464022 
L 217.473677 209.125799 
L 217.798657 208.623077 
L 218.123636 212.811538 
L 218.448616 212.515197 
L 218.773595 209.485641 
L 219.098575 204.730957 
L 219.423554 207.802848 
L 219.748534 208.646891 
L 220.073514 209.824316 
L 220.723473 214.557833 
L 221.048452 207.747284 
L 221.373432 207.456235 
L 221.698411 208.451094 
L 222.023391 205.860757 
L 222.34837 205.426829 
L 222.67335 208.326737 
L 222.998329 202.466066 
L 223.323309 204.900295 
L 223.648288 205.331577 
L 223.973268 205.331577 
L 224.298247 204.146213 
L 224.623227 205.04582 
L 224.948206 201.688171 
L 225.273186 204.910879 
L 225.923145 202.421086 
L 226.248124 203.275712 
L 226.573104 201.50825 
L 226.898084 202.563965 
L 227.223063 200.751523 
L 227.548043 204.336718 
L 227.873022 198.632156 
L 228.198002 203.746682 
L 228.522981 200.124444 
L 228.847961 203.333922 
L 229.17294 201.071677 
L 229.49792 200.738293 
L 229.822899 200.621873 
L 230.147879 201.661712 
L 230.472858 200.529267 
L 230.797838 199.843979 
L 231.122817 199.724913 
L 231.447797 201.99245 
L 231.772776 195.332718 
L 232.097756 198.806786 
L 232.422735 195.48618 
L 232.747715 198.917913 
L 233.397674 199.026395 
L 233.722654 199.650828 
L 234.047633 198.282897 
L 234.372613 199.550284 
L 235.022572 196.113259 
L 235.672531 200.113861 
L 235.99751 200.201175 
L 236.32249 197.499711 
L 236.647469 197.708737 
L 236.972449 197.682278 
L 237.297428 195.753416 
L 237.622408 196.563062 
L 237.947387 198.931143 
L 238.272367 199.785769 
L 238.597346 202.008325 
L 238.922326 201.402414 
L 239.247305 197.187494 
L 239.897265 198.161186 
L 240.222244 196.33816 
L 240.547224 193.226581 
L 240.872203 195.367115 
L 241.197183 195.914816 
L 241.522162 194.504551 
L 242.172121 203.564115 
L 242.497101 200.846775 
L 242.82208 199.214254 
L 243.14706 202.794158 
L 243.472039 201.648483 
L 243.797019 201.563814 
L 244.121998 203.744036 
L 244.446978 203.363027 
L 244.771957 192.022696 
L 245.421916 191.472349 
L 245.746896 201.407706 
L 246.071876 201.431519 
L 246.396855 203.318046 
L 246.721835 201.891906 
L 247.046814 191.879817 
L 247.371794 191.440598 
L 247.696773 187.987697 
L 248.021753 189.397962 
L 248.346732 189.059287 
L 248.671712 186.921399 
L 248.996691 195.592016 
L 249.321671 199.531762 
L 249.64665 197.724612 
L 249.97163 200.264677 
L 250.296609 198.187645 
L 250.621589 198.298773 
L 250.946568 197.036678 
L 251.271548 199.449739 
L 251.596527 196.417537 
L 251.921507 200.071526 
L 252.246486 197.960097 
L 252.571466 192.787361 
L 252.896446 200.568955 
L 253.221425 190.358424 
L 253.546405 198.298773 
L 253.871384 180.089683 
L 254.196364 194.718869 
L 254.521343 196.930842 
L 254.846323 196.716524 
L 255.171302 198.108268 
L 255.496282 197.809281 
L 255.821261 198.214104 
L 256.47122 193.792804 
L 256.7962 188.551274 
L 257.121179 196.60275 
L 257.446159 193.795449 
L 258.096118 196.494268 
L 258.421097 191.842775 
L 258.746077 193.541443 
L 259.071057 193.014909 
L 259.396036 196.600104 
L 259.721016 195.181901 
L 260.045995 192.805883 
L 260.370975 194.792954 
L 260.695954 192.829696 
L 261.020934 192.82705 
L 261.345913 192.348142 
L 261.670893 189.088392 
L 261.995872 182.89963 
L 262.320852 191.964486 
L 262.645831 191.766044 
L 262.970811 193.644633 
L 263.29579 186.786458 
L 263.62077 192.258181 
L 263.945749 191.199821 
L 264.270729 185.032226 
L 264.595708 185.161875 
L 265.245667 190.458969 
L 265.570647 191.63904 
L 265.895627 183.418227 
L 266.220606 189.421775 
L 266.545586 187.26272 
L 266.870565 180.094975 
L 267.195545 182.10586 
L 267.520524 190.959044 
L 267.845504 189.027536 
L 268.170483 180.158477 
L 268.495463 192.779424 
L 269.145422 181.507886 
L 269.470401 165.148282 
L 269.795381 177.811563 
L 270.12036 183.449977 
L 270.44534 185.569344 
L 270.770319 176.165813 
L 271.095299 180.309293 
L 271.420278 186.744124 
L 271.745258 185.35238 
L 272.070238 174.099364 
L 272.395217 178.96253 
L 272.720197 177.848605 
L 273.045176 183.838925 
L 273.370156 184.923744 
L 273.695135 175.075701 
L 274.020115 174.313682 
L 274.345094 179.613421 
L 274.670074 176.679117 
L 274.995053 185.122187 
L 275.645012 177.279737 
L 275.969992 174.845508 
L 276.294971 176.075852 
L 276.619951 175.985891 
L 276.94493 172.60443 
L 277.26991 176.919894 
L 277.594889 174.059676 
L 277.919869 175.700134 
L 278.244848 176.242544 
L 278.569828 175.935619 
L 278.894808 171.85564 
L 279.219787 172.056729 
L 279.544767 170.490355 
L 279.869746 178.385723 
L 280.194726 181.07925 
L 280.519705 181.806873 
L 280.844685 168.0085 
L 281.169664 168.032314 
L 281.494644 169.315575 
L 281.819623 161.322309 
L 282.144603 169.2997 
L 282.469582 174.247535 
L 282.794562 170.162264 
L 283.119541 168.535035 
L 283.444521 170.866073 
L 283.7695 167.728035 
L 284.09448 171.704824 
L 284.419459 183.410289 
L 284.744439 178.883153 
L 285.069419 167.458153 
L 285.394398 167.913248 
L 285.719378 166.349521 
L 286.044357 165.783298 
L 286.369337 178.480976 
L 286.694316 182.293719 
L 287.019296 179.436146 
L 287.344275 177.819501 
L 287.669255 180.66649 
L 287.994234 180.132018 
L 288.319214 178.549769 
L 288.644193 144.81718 
L 288.969173 146.769855 
L 289.294152 173.149486 
L 289.619132 170.074949 
L 289.944111 180.245792 
L 290.269091 170.588254 
L 290.59407 168.556202 
L 290.91905 167.87356 
L 291.244029 168.841959 
L 291.569009 166.013491 
L 291.893989 175.512275 
L 292.218968 176.586511 
L 292.543948 176.152583 
L 292.868927 177.070711 
L 293.193907 172.144043 
L 293.518886 176.597094 
L 293.843866 172.141397 
L 294.168845 160.248073 
L 294.493825 167.010996 
L 294.818804 161.200598 
L 295.143784 165.785944 
L 295.468763 167.132707 
L 295.793743 162.822535 
L 296.118722 162.774909 
L 296.443702 163.367591 
L 297.093661 160.499434 
L 297.41864 160.274533 
L 298.393579 178.901674 
L 298.718559 175.311187 
L 299.043538 176.316629 
L 299.368518 171.638676 
L 299.693497 171.643968 
L 300.018477 173.911505 
L 300.343456 157.382563 
L 300.993415 160.131654 
L 301.318395 155.829419 
L 301.968354 162.825181 
L 302.293333 154.339777 
L 302.618313 157.856179 
L 302.943292 157.440773 
L 303.268272 156.718442 
L 303.593251 161.822384 
L 303.918231 172.564742 
L 304.24321 161.98643 
L 304.56819 169.99028 
L 305.543129 162.489151 
L 305.868108 162.340981 
L 306.193088 158.639366 
L 306.518067 156.607314 
L 306.843047 153.138538 
L 307.168026 156.641711 
L 307.493006 155.575413 
L 307.817985 156.236888 
L 308.142965 156.324203 
L 308.467944 144.150413 
L 308.792924 151.812942 
L 309.117903 155.895567 
L 309.767862 143.200535 
L 310.092842 148.219809 
L 310.742801 139.734405 
L 311.067781 148.264789 
L 311.39276 143.398977 
L 311.71774 156.475019 
L 312.042719 158.176333 
L 312.367699 142.205676 
L 312.692678 149.325795 
L 313.017658 151.725627 
L 313.342637 142.165988 
L 313.992596 158.160458 
L 314.317576 160.885736 
L 314.642555 152.781341 
L 314.967535 165.894426 
L 315.292514 164.931318 
L 315.617494 161.981139 
L 315.942473 162.669073 
L 316.267453 167.217376 
L 316.592432 157.395792 
L 316.917412 159.967608 
L 317.242391 144.322397 
L 317.567371 147.595376 
L 317.892351 154.845144 
L 318.21733 155.183819 
L 318.54231 145.092354 
L 318.867289 151.463683 
L 319.192269 150.016375 
L 319.517248 130.743634 
L 319.842228 163.296151 
L 320.492187 144.491734 
L 320.817166 157.088868 
L 321.142146 157.488399 
L 321.467125 141.845834 
L 321.792105 152.44002 
L 322.117084 149.555988 
L 322.442064 142.21626 
L 322.767043 145.904645 
L 323.092023 154.747246 
L 323.417002 157.319061 
L 324.066962 144.854223 
L 324.391941 146.68254 
L 324.716921 143.97843 
L 325.0419 145.095 
L 325.36688 144.428233 
L 325.691859 144.944183 
L 326.016839 148.068992 
L 326.341818 144.510256 
L 326.666798 156.633773 
L 326.991777 152.101345 
L 327.316757 145.412508 
L 327.641736 145.698265 
L 327.966716 147.9023 
L 328.616675 140.708096 
L 328.941654 145.867603 
L 329.266634 153.08562 
L 329.591613 140.374713 
L 329.916593 145.092354 
L 330.241572 155.929963 
L 330.566552 149.966103 
L 331.216511 155.374324 
L 331.541491 161.36729 
L 331.86647 105.141898 
L 332.19145 134.992951 
L 332.516429 140.477903 
L 332.841409 133.638249 
L 333.166388 118.725953 
L 333.491368 81.074784 
L 333.816347 58.817467 
L 334.141327 125.938678 
L 334.466306 109.653159 
L 334.791286 129.288388 
L 335.116265 124.269115 
L 335.766224 104.808514 
L 336.091204 115.900131 
L 336.416183 135.65178 
L 336.741163 131.794057 
L 337.066143 130.582234 
L 337.391122 130.272664 
L 337.716102 127.732599 
L 338.366061 140.551988 
L 338.69104 122.927643 
L 339.01602 131.090247 
L 339.340999 135.278708 
L 339.665979 135.514193 
L 339.990958 135.307813 
L 340.315938 128.237966 
L 340.640917 127.425674 
L 340.965897 119.223382 
L 341.290876 107.782507 
L 341.615856 128.510494 
L 341.940835 129.378349 
L 342.265815 119.15988 
L 342.590794 127.057894 
L 342.915774 123.901334 
L 343.565733 136.464071 
L 343.890713 133.78642 
L 344.215692 135.323688 
L 344.540672 133.209613 
L 344.865651 129.314847 
L 345.190631 132.828604 
L 345.51561 134.19918 
L 345.84059 122.401109 
L 346.165569 128.343802 
L 346.490549 127.200773 
L 346.815528 135.844931 
L 347.140508 133.320741 
L 347.465487 65.032688 
L 347.790467 141.51245 
L 348.115446 131.211958 
L 348.440426 143.105282 
L 348.765405 135.686177 
L 349.090385 125.420082 
L 349.415364 132.413197 
L 349.740344 132.958253 
L 350.065324 121.848115 
L 350.390303 121.318935 
L 350.715283 123.089043 
L 351.040262 144.915078 
L 351.365242 132.849771 
L 351.690221 125.467708 
L 352.015201 128.66131 
L 352.34018 127.64793 
L 352.66516 98.508625 
L 352.990139 113.791348 
L 353.640098 122.898538 
L 354.290057 119.68906 
L 354.615037 125.671442 
L 354.940016 105.004311 
L 355.264996 131.407755 
L 355.589975 124.9888 
L 355.914955 124.295574 
L 356.239934 128.240612 
L 356.564914 121.87722 
L 356.889894 122.771535 
L 357.214873 127.129333 
L 357.539853 126.290583 
L 357.864832 125.830196 
L 358.189812 116.130324 
L 358.514791 119.932483 
L 359.16475 133.161987 
L 359.48973 134.974429 
L 359.814709 123.763748 
L 360.139689 127.42832 
L 360.464668 122.475194 
L 360.789648 134.30237 
L 361.114627 133.839338 
L 361.439607 132.696309 
L 362.089566 139.721175 
L 362.414545 137.331927 
L 362.739525 115.76519 
L 363.064505 130.092742 
L 363.389484 131.505653 
L 363.714464 135.286646 
L 364.039443 131.566509 
L 364.364423 134.611941 
L 364.689402 139.403667 
L 365.014382 136.090999 
L 365.339361 128.645435 
L 365.664341 136.601658 
L 366.3143 120.257929 
L 366.639279 121.930138 
L 366.964259 133.146112 
L 367.289238 131.497716 
L 367.614218 128.375553 
L 367.939197 122.927643 
L 368.264177 122.239709 
L 368.589156 124.380243 
L 368.914136 134.648983 
L 369.239115 133.032338 
L 369.564095 118.768287 
L 369.889075 129.291034 
L 370.214054 130.486982 
L 370.539034 130.569004 
L 370.864013 134.865947 
L 371.188993 131.738493 
L 371.513972 130.99764 
L 371.838952 132.66985 
L 372.163931 127.478592 
L 372.81389 133.646187 
L 373.13887 133.265177 
L 373.463849 133.468912 
L 373.788829 132.362925 
L 374.113808 127.084353 
L 374.438788 130.645736 
L 374.763767 131.077017 
L 375.088747 135.141121 
L 375.413726 124.3432 
L 375.738706 126.73774 
L 376.063686 131.84962 
L 376.388665 132.122148 
L 376.713645 124.134174 
L 377.038624 95.214478 
L 377.363604 53.568 
L 377.688583 119.271008 
L 378.013563 114.249088 
L 378.338542 128.031586 
L 378.663522 114.03477 
L 378.988501 115.10636 
L 379.313481 132.050709 
L 379.63846 105.512324 
L 379.96344 110.806772 
L 380.288419 112.00801 
L 380.613399 110.74327 
L 380.938378 119.765792 
L 381.263358 122.173561 
L 381.588337 129.312202 
L 381.913317 121.12843 
L 382.238296 126.48638 
L 382.888256 122.90383 
L 383.213235 129.672044 
L 383.538215 125.502104 
L 383.863194 129.61648 
L 384.188174 127.182251 
L 384.513153 115.439744 
L 384.838133 111.682565 
L 385.163112 126.650425 
L 385.488092 129.875778 
L 385.813071 106.962278 
L 386.46303 109.327713 
L 386.78801 112.351978 
L 387.112989 105.803373 
L 387.437969 123.673787 
L 387.762948 110.050044 
L 388.087928 107.443832 
L 388.412907 121.752863 
L 388.737887 115.606436 
L 389.387846 122.221188 
L 389.712826 113.955393 
L 390.037805 114.632744 
L 390.362785 110.835876 
L 390.687764 103.236849 
L 391.012744 103.181286 
L 391.337723 116.217639 
L 391.662703 123.731997 
L 391.987682 120.707732 
L 392.312662 125.470354 
L 392.637641 104.107351 
L 392.962621 110.457513 
L 393.2876 114.516324 
L 393.61258 100.802621 
L 394.262539 121.162827 
L 394.587518 122.758305 
L 394.912498 122.880017 
L 395.237477 118.964084 
L 395.562457 121.078158 
L 395.887437 116.81032 
L 396.212416 121.969827 
L 396.537396 91.510217 
L 396.862375 121.255434 
L 397.187355 102.538332 
L 397.512334 117.238956 
L 397.837314 117.83693 
L 398.162293 115.323324 
L 398.487273 102.435141 
L 398.487273 102.435141 
" clip-path="url(#p15c5eaf849)" style="fill: none; stroke: #1f77b4; stroke-width: 1.5; stroke-linecap: square"/>
   </g>
   <g id="patch_3">
    <path d="M 57.6 307.584 
L 57.6 41.472 
" style="fill: none; stroke: #000000; stroke-width: 0.8; stroke-linejoin: miter; stroke-linecap: square"/>
   </g>
   <g id="patch_4">
    <path d="M 414.72 307.584 
L 414.72 41.472 
" style="fill: none; stroke: #000000; stroke-width: 0.8; stroke-linejoin: miter; stroke-linecap: square"/>
   </g>
   <g id="patch_5">
    <path d="M 57.6 307.584 
L 414.72 307.584 
" style="fill: none; stroke: #000000; stroke-width: 0.8; stroke-linejoin: miter; stroke-linecap: square"/>
   </g>
   <g id="patch_6">
    <path d="M 57.6 41.472 
L 414.72 41.472 
" style="fill: none; stroke: #000000; stroke-width: 0.8; stroke-linejoin: miter; stroke-linecap: square"/>
   </g>
   <g id="text_15">
    <!-- График -->
    <g transform="translate(212.361562 35.472) scale(0.12 -0.12)">
     <defs>
      <path id="DejaVuSans-413" d="M 628 0 
L 628 4666 
L 3531 4666 
L 3531 4134 
L 1259 4134 
L 1259 0 
L 628 0 
z
" transform="scale(0.015625)"/>
      <path id="DejaVuSans-440" d="M 1159 525 
L 1159 -1331 
L 581 -1331 
L 581 3500 
L 1159 3500 
L 1159 2969 
Q 1341 3281 1617 3432 
Q 1894 3584 2278 3584 
Q 2916 3584 3314 3078 
Q 3713 2572 3713 1747 
Q 3713 922 3314 415 
Q 2916 -91 2278 -91 
Q 1894 -91 1617 61 
Q 1341 213 1159 525 
z
M 3116 1747 
Q 3116 2381 2855 2742 
Q 2594 3103 2138 3103 
Q 1681 3103 1420 2742 
Q 1159 2381 1159 1747 
Q 1159 1113 1420 752 
Q 1681 391 2138 391 
Q 2594 391 2855 752 
Q 3116 1113 3116 1747 
z
" transform="scale(0.015625)"/>
      <path id="DejaVuSans-430" d="M 2194 1759 
Q 1497 1759 1228 1600 
Q 959 1441 959 1056 
Q 959 750 1161 570 
Q 1363 391 1709 391 
Q 2188 391 2477 730 
Q 2766 1069 2766 1631 
L 2766 1759 
L 2194 1759 
z
M 3341 1997 
L 3341 0 
L 2766 0 
L 2766 531 
Q 2569 213 2275 61 
Q 1981 -91 1556 -91 
Q 1019 -91 701 211 
Q 384 513 384 1019 
Q 384 1609 779 1909 
Q 1175 2209 1959 2209 
L 2766 2209 
L 2766 2266 
Q 2766 2663 2505 2880 
Q 2244 3097 1772 3097 
Q 1472 3097 1187 3025 
Q 903 2953 641 2809 
L 641 3341 
Q 956 3463 1253 3523 
Q 1550 3584 1831 3584 
Q 2591 3584 2966 3190 
Q 3341 2797 3341 1997 
z
" transform="scale(0.015625)"/>
      <path id="DejaVuSans-444" d="M 947 1747 
Q 947 1013 1173 702 
Q 1400 391 1784 391 
Q 2091 391 2447 916 
L 2447 2578 
Q 2091 3103 1784 3103 
Q 1400 3103 1173 2792 
Q 947 2481 947 1747 
z
M 2447 -1331 
L 2447 447 
Q 2269 153 2064 31 
Q 1859 -91 1600 -91 
Q 1078 -91 714 392 
Q 350 875 350 1734 
Q 350 2594 714 3089 
Q 1078 3584 1600 3584 
Q 1859 3584 2064 3465 
Q 2269 3347 2447 3053 
L 2447 4666 
L 3025 4666 
L 3025 3053 
Q 3203 3347 3408 3465 
Q 3613 3584 3872 3584 
Q 4394 3584 4758 3089 
Q 5122 2594 5122 1734 
Q 5122 875 4758 392 
Q 4394 -91 3872 -91 
Q 3613 -91 3408 31 
Q 3203 153 3025 447 
L 3025 -1331 
L 2447 -1331 
z
M 4525 1747 
Q 4525 2481 4298 2792 
Q 4072 3103 3688 3103 
Q 3381 3103 3025 2578 
L 3025 916 
Q 3381 391 3688 391 
Q 4072 391 4298 702 
Q 4525 1013 4525 1747 
z
" transform="scale(0.015625)"/>
      <path id="DejaVuSans-438" d="M 3578 3500 
L 3578 0 
L 3006 0 
L 3006 2809 
L 1319 0 
L 581 0 
L 581 3500 
L 1153 3500 
L 1153 697 
L 2838 3500 
L 3578 3500 
z
" transform="scale(0.015625)"/>
      <path id="DejaVuSans-43a" d="M 581 3500 
L 1153 3500 
L 1153 1856 
L 2775 3500 
L 3481 3500 
L 2144 2147 
L 3653 0 
L 3009 0 
L 1769 1766 
L 1153 1141 
L 1153 0 
L 581 0 
L 581 3500 
z
" transform="scale(0.015625)"/>
     </defs>
     <use xlink:href="#DejaVuSans-413"/>
     <use xlink:href="#DejaVuSans-440" transform="translate(60.986328 0)"/>
     <use xlink:href="#DejaVuSans-430" transform="translate(124.462891 0)"/>
     <use xlink:href="#DejaVuSans-444" transform="translate(185.742188 0)"/>
     <use xlink:href="#DejaVuSans-438" transform="translate(271.240234 0)"/>
     <use xlink:href="#DejaVuSans-43a" transform="translate(336.230469 0)"/>
    </g>
   </g>
  </g>
 </g>
 <defs>
  <clipPath id="p15c5eaf849">
   <rect x="57.6" y="41.472" width="357.12" height="266.112"/>
  </clipPath>
 </defs>
</svg>
